<?xml version="1.0" encoding="utf-8"?>
<!-- Generator: Adobe Illustrator 22.0.0, SVG Export Plug-In . SVG Version: 6.00 Build 0)  -->
<svg version="1.1" xmlns="http://www.w3.org/2000/svg" xmlns:xlink="http://www.w3.org/1999/xlink" x="0px" y="0px"
	 viewBox="0 0 500 500" style="enable-background:new 0 0 500 500;" xml:space="preserve">
<style type="text/css">
	.st0{opacity:0.17;fill:#222133;}
	.st1{fill:url(#XMLID_5_);}
	.st2{fill:url(#XMLID_7_);}
	.st3{fill:url(#XMLID_9_);}
	.st4{fill:url(#SVGID_1_);}
	.st5{fill:url(#SVGID_2_);}
	.st6{fill:#3800F6;}
	.st7{fill:#6C00F9;}
	.st8{fill:url(#XMLID_10_);}
	.st9{fill:url(#XMLID_18_);}
	.st10{fill:url(#SVGID_3_);}
	.st11{fill:url(#SVGID_4_);}
	.st12{fill:url(#SVGID_5_);}
	.st13{fill:url(#SVGID_6_);}
	.st14{fill:url(#SVGID_7_);}
	.st15{fill:url(#SVGID_8_);}
	.st16{fill:url(#SVGID_9_);}
	.st17{fill:url(#SVGID_10_);}
	.st18{fill:url(#SVGID_11_);}
	.st19{fill:url(#SVGID_12_);}
	.st20{fill:url(#SVGID_13_);}
	.st21{fill:url(#SVGID_14_);}
	.st22{fill:url(#XMLID_19_);}
	.st23{fill:url(#XMLID_21_);}
	.st24{fill:url(#XMLID_22_);}
	.st25{fill:url(#SVGID_15_);}
	.st26{fill:url(#SVGID_16_);}
	.st27{fill:url(#XMLID_23_);}
	.st28{fill:url(#XMLID_24_);}
	.st29{fill:url(#SVGID_17_);}
	.st30{fill:url(#SVGID_18_);}
	.st31{fill:url(#SVGID_19_);}
	.st32{fill:url(#SVGID_20_);}
	.st33{fill:url(#SVGID_21_);}
	.st34{fill:url(#SVGID_22_);}
	.st35{fill:url(#SVGID_23_);}
	.st36{fill:url(#SVGID_24_);}
	.st37{fill:url(#SVGID_25_);}
	.st38{fill:url(#SVGID_26_);}
	.st39{fill:url(#SVGID_27_);}
	.st40{fill:url(#SVGID_28_);}
	.st41{fill:#53A2A6;}
	.st42{fill:url(#XMLID_25_);}
	.st43{fill:#7BD6C9;}
	.st44{fill:url(#SVGID_29_);}
	.st45{fill:url(#SVGID_30_);}
	.st46{fill:#9D7DF5;}
	.st47{fill:url(#SVGID_31_);}
	.st48{fill:url(#SVGID_32_);}
	.st49{fill:url(#SVGID_33_);}
	.st50{fill:url(#SVGID_34_);}
	.st51{fill:url(#SVGID_35_);}
	.st52{fill:url(#SVGID_36_);}
	.st53{fill:url(#SVGID_37_);}
	.st54{fill:url(#SVGID_38_);}
	.st55{fill:url(#SVGID_39_);}
	.st56{fill:url(#SVGID_40_);}
	.st57{enable-background:new    ;}
	.st58{fill:#7A41E5;}
	.st59{fill:#D0CDFC;}
	.st60{fill:none;}
	.st61{fill:#D3CB54;}
	.st62{fill:#DED95D;}
	.st63{fill:#BAFFD5;}
	.st64{fill:#92CACA;}
	.st65{fill:#6489D1;}
	.st66{fill:#4A65C1;}
	.st67{fill:#4662B2;}
	.st68{fill:#C5DBFA;}
	.st69{fill:#7499EE;}
	.st70{fill:#9CBFFC;}
	.st71{opacity:0.57;fill:#4A65C1;}
	.st72{fill:#2A3F73;}
	.st73{fill:#7C93E6;}
	.st74{opacity:0.21;fill:#1C2858;}
	.st75{fill:#CEE6FD;}
	.st76{fill:#ABC9FC;}
	.st77{clip-path:url(#SVGID_42_);}
	.st78{fill:#B8BFFC;}
	.st79{fill:#C5437D;}
	.st80{fill:#C5EAFD;}
	.st81{fill:#FFFFFF;}
	.st82{fill:#334D8D;}
	.st83{fill:#F3D639;}
	.st84{opacity:0.12;}
	.st85{fill:#1C2858;}
	.st86{fill:#E7AD47;}
	.st87{opacity:0.31;}
	.st88{fill:#E8A02F;}
	.st89{fill:#F9EC3E;}
</style>
<g id="gift">
	<g>
		<polygon class="st0" points="295.8,289.4 329.6,281.8 331.1,258.4 324.9,252.1 271.3,273.3 		"/>
		<polygon class="st0" points="245.5,298.7 279.3,291.1 280.8,267.8 274.6,261.5 221,282.6 		"/>
		<polygon class="st0" points="245.5,256.4 279.3,248.8 280.8,225.4 274.6,219.1 221,240.3 		"/>
		<g>
			
				<linearGradient id="XMLID_5_" gradientUnits="userSpaceOnUse" x1="236.5726" y1="-16136.2783" x2="252.6462" y2="-16076.291" gradientTransform="matrix(1 0 0 -1 0 -15882)">
				<stop  offset="0" style="stop-color:#4C408B"/>
				<stop  offset="1" style="stop-color:#1E2034"/>
			</linearGradient>
			<polygon id="XMLID_17_" class="st1" points="220.2,240.4 220.2,208.2 244.5,192.1 269,208.2 269,240.4 244.7,256.5 			"/>
			
				<linearGradient id="XMLID_7_" gradientUnits="userSpaceOnUse" x1="240.5938" y1="-16105.1865" x2="248.6251" y2="-16075.2129" gradientTransform="matrix(1 0 0 -1 0 -15882)">
				<stop  offset="0" style="stop-color:#4C408B"/>
				<stop  offset="1" style="stop-color:#1E2034"/>
			</linearGradient>
			<polygon id="XMLID_16_" class="st2" points="244.5,192.1 269,208.2 244.7,224.3 220.2,208.2 			"/>
			
				<linearGradient id="XMLID_9_" gradientUnits="userSpaceOnUse" x1="251.6225" y1="-16094.8516" x2="262.0587" y2="-16133.8008" gradientTransform="matrix(1 0 0 -1 0 -15882)">
				<stop  offset="0" style="stop-color:#4C408B"/>
				<stop  offset="1" style="stop-color:#1E2034"/>
			</linearGradient>
			<polygon id="XMLID_15_" class="st3" points="244.7,256.5 244.7,224.3 269,208.2 269,240.4 			"/>
			
				<linearGradient id="SVGID_1_" gradientUnits="userSpaceOnUse" x1="254.6254" y1="-16116.3252" x2="260.8791" y2="-16116.3252" gradientTransform="matrix(1 0 0 -1 0 -15882)">
				<stop  offset="0" style="stop-color:#6C00F9"/>
				<stop  offset="0.3236" style="stop-color:#6900F9"/>
				<stop  offset="0.5712" style="stop-color:#5F00F8"/>
				<stop  offset="0.7929" style="stop-color:#4F00F7"/>
				<stop  offset="0.9993" style="stop-color:#3800F6"/>
				<stop  offset="1" style="stop-color:#3800F6"/>
			</linearGradient>
			<polygon class="st4" points="260.9,218.8 254.6,223.1 254.6,249.9 260.9,245.5 			"/>
			
				<linearGradient id="SVGID_2_" gradientUnits="userSpaceOnUse" x1="227.9811" y1="367.8463" x2="235.3382" y2="395.3036" gradientTransform="matrix(1 0 0 -1 0 615.9562)">
				<stop  offset="0" style="stop-color:#6C00F9"/>
				<stop  offset="0.3236" style="stop-color:#6900F9"/>
				<stop  offset="0.5712" style="stop-color:#5F00F8"/>
				<stop  offset="0.7929" style="stop-color:#4F00F7"/>
				<stop  offset="0.9993" style="stop-color:#3800F6"/>
				<stop  offset="1" style="stop-color:#3800F6"/>
			</linearGradient>
			<polygon class="st5" points="234.8,249.9 228.5,245.6 228.5,218.8 234.8,223.2 			"/>
			<polygon class="st6" points="260.9,245.7 254.6,249.9 260.9,245.5 			"/>
			<polygon class="st7" points="228.5,245.8 228.5,245.6 234.8,249.9 			"/>
			<g>
				
					<linearGradient id="XMLID_10_" gradientUnits="userSpaceOnUse" x1="240.3853" y1="-16113.1436" x2="249.0016" y2="-16080.9873" gradientTransform="matrix(1 0 0 -1 0 -15882)">
					<stop  offset="0" style="stop-color:#4C408B"/>
					<stop  offset="1" style="stop-color:#1E2034"/>
				</linearGradient>
				<polygon id="XMLID_14_" class="st8" points="244.6,197.8 270.8,215.1 244.8,232.3 218.5,215.1 				"/>
				
					<linearGradient id="XMLID_18_" gradientUnits="userSpaceOnUse" x1="240.3853" y1="-16104.9443" x2="249.0016" y2="-16072.7881" gradientTransform="matrix(1 0 0 -1 0 -15882)">
					<stop  offset="0" style="stop-color:#4C408B"/>
					<stop  offset="1" style="stop-color:#1E2034"/>
				</linearGradient>
				<polygon id="XMLID_13_" class="st9" points="244.6,189.6 270.8,206.9 244.8,224.1 218.5,206.9 				"/>
				
					<linearGradient id="SVGID_3_" gradientUnits="userSpaceOnUse" x1="253.7604" y1="-16116.7314" x2="261.8708" y2="-16086.4639" gradientTransform="matrix(1 0 0 -1 0 -15882)">
					<stop  offset="0" style="stop-color:#4C408B"/>
					<stop  offset="1" style="stop-color:#1E2034"/>
				</linearGradient>
				<polygon class="st10" points="244.8,224.1 244.8,232.3 270.8,215.1 270.8,206.9 				"/>
				
					<linearGradient id="SVGID_4_" gradientUnits="userSpaceOnUse" x1="229.3577" y1="-16110.1885" x2="233.9616" y2="-16093.0068" gradientTransform="matrix(1 0 0 -1 0 -15882)">
					<stop  offset="0" style="stop-color:#4C408B"/>
					<stop  offset="1" style="stop-color:#1E2034"/>
				</linearGradient>
				<polygon class="st11" points="218.5,206.9 218.5,215.1 244.8,232.3 244.8,224.1 				"/>
			</g>
			
				<linearGradient id="SVGID_5_" gradientUnits="userSpaceOnUse" x1="255.0615" y1="-16101.4043" x2="261.3152" y2="-16101.4043" gradientTransform="matrix(1 0 0 -1 0 -15882)">
				<stop  offset="0" style="stop-color:#6C00F9"/>
				<stop  offset="0.3236" style="stop-color:#6900F9"/>
				<stop  offset="0.5712" style="stop-color:#5F00F8"/>
				<stop  offset="0.7929" style="stop-color:#4F00F7"/>
				<stop  offset="0.9993" style="stop-color:#3800F6"/>
				<stop  offset="1" style="stop-color:#3800F6"/>
			</linearGradient>
			<polygon class="st12" points="255.1,225.5 255.1,217.3 261.3,213.3 261.3,221.4 			"/>
			
				<linearGradient id="SVGID_6_" gradientUnits="userSpaceOnUse" x1="227.8923" y1="-16101.2148" x2="234.146" y2="-16101.2148" gradientTransform="matrix(1 0 0 -1 0 -15882)">
				<stop  offset="0" style="stop-color:#6C00F9"/>
				<stop  offset="0.3236" style="stop-color:#6900F9"/>
				<stop  offset="0.5712" style="stop-color:#5F00F8"/>
				<stop  offset="0.7929" style="stop-color:#4F00F7"/>
				<stop  offset="0.9993" style="stop-color:#3800F6"/>
				<stop  offset="1" style="stop-color:#3800F6"/>
			</linearGradient>
			<polygon class="st13" points="227.9,213.1 227.9,221.3 234.1,225.3 234.1,217.2 			"/>
			
				<linearGradient id="SVGID_7_" gradientUnits="userSpaceOnUse" x1="228.5328" y1="-16088.7197" x2="261.3152" y2="-16088.7197" gradientTransform="matrix(1 0 0 -1 0 -15882)">
				<stop  offset="0" style="stop-color:#6C00F9"/>
				<stop  offset="0.3236" style="stop-color:#6900F9"/>
				<stop  offset="0.5712" style="stop-color:#5F00F8"/>
				<stop  offset="0.7929" style="stop-color:#4F00F7"/>
				<stop  offset="0.9993" style="stop-color:#3800F6"/>
				<stop  offset="1" style="stop-color:#3800F6"/>
			</linearGradient>
			<polyline class="st14" points="255.1,217.3 228.5,200.3 234.8,196.1 261.3,213.3 			"/>
			
				<linearGradient id="SVGID_8_" gradientUnits="userSpaceOnUse" x1="227.8923" y1="-16088.4463" x2="259.9674" y2="-16088.4463" gradientTransform="matrix(1 0 0 -1 0 -15882)">
				<stop  offset="0" style="stop-color:#6C00F9"/>
				<stop  offset="0.3236" style="stop-color:#6900F9"/>
				<stop  offset="0.5712" style="stop-color:#5F00F8"/>
				<stop  offset="0.7929" style="stop-color:#4F00F7"/>
				<stop  offset="0.9993" style="stop-color:#3800F6"/>
				<stop  offset="1" style="stop-color:#3800F6"/>
			</linearGradient>
			<polyline class="st15" points="227.9,213.1 253.7,195.7 260,199.7 234.1,217.2 			"/>
			<g>
				<g>
					
						<linearGradient id="SVGID_9_" gradientUnits="userSpaceOnUse" x1="241.3562" y1="-16082.1348" x2="251.604" y2="-16082.1348" gradientTransform="matrix(1 0 0 -1 0 -15882)">
						<stop  offset="0" style="stop-color:#8A00F9"/>
						<stop  offset="0.2428" style="stop-color:#8700F9"/>
						<stop  offset="0.4287" style="stop-color:#7D00F9"/>
						<stop  offset="0.5957" style="stop-color:#6D00F8"/>
						<stop  offset="0.7514" style="stop-color:#5600F8"/>
						<stop  offset="0.8981" style="stop-color:#3800F7"/>
						<stop  offset="1" style="stop-color:#1F00F6"/>
					</linearGradient>
					<path class="st16" d="M251.6,194.8c-0.7-0.3-1.6-0.1-2.6,0.5c-3.4,2.1-3.2,6.8-3.3,10c0,1.4-0.1,2.5-0.5,3c0,0-0.1,0.1-0.2,0.2
						l-3.6-3.1c0.6-0.7,0.5-2.5,0.6-4.6c0.1-3,0.4-6.7,3.3-8.4c1.6-1,2.6-0.4,3.6,0.3C249.4,193.1,251,194.3,251.6,194.8z"/>
					
						<linearGradient id="SVGID_10_" gradientUnits="userSpaceOnUse" x1="241.3562" y1="-16086.8408" x2="245.7068" y2="-16086.8408" gradientTransform="matrix(1 0 0 -1 0 -15882)">
						<stop  offset="0" style="stop-color:#8A00F9"/>
						<stop  offset="0.2428" style="stop-color:#8700F9"/>
						<stop  offset="0.4287" style="stop-color:#7D00F9"/>
						<stop  offset="0.5957" style="stop-color:#6D00F8"/>
						<stop  offset="0.7514" style="stop-color:#5600F8"/>
						<stop  offset="0.8981" style="stop-color:#3800F7"/>
						<stop  offset="1" style="stop-color:#1F00F6"/>
					</linearGradient>
					<path class="st17" d="M245.2,208.3c0,0-0.1,0.2-0.3,0.4l-0.7,0.3l-2.8-3.5c0.6-0.7,0.5-2.5,0.6-4.6c0,0.1,0,0.2,0,0.3
						c0,3.8,3.8,5.3,3.8,5.3S245.6,207.8,245.2,208.3z"/>
					
						<linearGradient id="SVGID_11_" gradientUnits="userSpaceOnUse" x1="244.8778" y1="-16083.6338" x2="253.3075" y2="-16083.6338" gradientTransform="matrix(1 0 0 -1 0 -15882)">
						<stop  offset="0" style="stop-color:#8A00F9"/>
						<stop  offset="0.2428" style="stop-color:#8700F9"/>
						<stop  offset="0.4287" style="stop-color:#7D00F9"/>
						<stop  offset="0.5957" style="stop-color:#6D00F8"/>
						<stop  offset="0.7514" style="stop-color:#5600F8"/>
						<stop  offset="0.8981" style="stop-color:#3800F7"/>
						<stop  offset="1" style="stop-color:#1F00F6"/>
					</linearGradient>
					<path class="st18" d="M249.3,205.5c-6.1,4.6-4.1,2.8-4.1,2.8c0.6-0.7,0.5-2.5,0.6-4.7c0.1-0.1,0.2-0.1,0.2-0.2
						c2.5-1.9,3.8-4.5,4-6.7c0.1-0.7,0-1.3-0.1-1.9c1.5-0.5,2.6,0.1,3.1,1.4C253.9,198.5,253,202.7,249.3,205.5z"/>
					
						<linearGradient id="SVGID_12_" gradientUnits="userSpaceOnUse" x1="249.8869" y1="-16077.6523" x2="252.9662" y2="-16077.6523" gradientTransform="matrix(1 0 0 -1 0 -15882)">
						<stop  offset="0" style="stop-color:#8A00F9"/>
						<stop  offset="0.2428" style="stop-color:#8700F9"/>
						<stop  offset="0.4287" style="stop-color:#7D00F9"/>
						<stop  offset="0.5957" style="stop-color:#6D00F8"/>
						<stop  offset="0.7514" style="stop-color:#5600F8"/>
						<stop  offset="0.8981" style="stop-color:#3800F7"/>
						<stop  offset="1" style="stop-color:#1F00F6"/>
					</linearGradient>
					<path class="st19" d="M250,196.7c0.1-0.7,0-1.3-0.1-1.9c1.5-0.5,2.6,0.1,3.1,1.4C252,196.3,250.9,196.5,250,196.7z"/>
				</g>
				
					<linearGradient id="SVGID_13_" gradientUnits="userSpaceOnUse" x1="233.2642" y1="-16087.7822" x2="245.4913" y2="-16087.7822" gradientTransform="matrix(1 0 0 -1 0 -15882)">
					<stop  offset="0" style="stop-color:#8A00F9"/>
					<stop  offset="0.2428" style="stop-color:#8700F9"/>
					<stop  offset="0.4287" style="stop-color:#7D00F9"/>
					<stop  offset="0.5957" style="stop-color:#6D00F8"/>
					<stop  offset="0.7514" style="stop-color:#5600F8"/>
					<stop  offset="0.8981" style="stop-color:#3800F7"/>
					<stop  offset="1" style="stop-color:#1F00F6"/>
				</linearGradient>
				<path class="st20" d="M245.4,208.2c-1.7,0-2.9-8.4-7.7-8.3c1.9,2.5,2.8,6.1,3.9,6.2c0,0,1.4-0.2-5.4,2.8
					c-1.1,0.5-2.1,0.7-2.9,0.7c1.1,1.9,3.4,2.9,6.7,1.4C246.8,208,245.4,208.2,245.4,208.2z"/>
				
					<linearGradient id="SVGID_14_" gradientUnits="userSpaceOnUse" x1="229.7294" y1="-16086.3799" x2="239.4821" y2="-16086.3799" gradientTransform="matrix(1 0 0 -1 0 -15882)">
					<stop  offset="0" style="stop-color:#8A00F9"/>
					<stop  offset="0.2428" style="stop-color:#8700F9"/>
					<stop  offset="0.4287" style="stop-color:#7D00F9"/>
					<stop  offset="0.5957" style="stop-color:#6D00F8"/>
					<stop  offset="0.7514" style="stop-color:#5600F8"/>
					<stop  offset="0.8981" style="stop-color:#3800F7"/>
					<stop  offset="1" style="stop-color:#1F00F6"/>
				</linearGradient>
				<path class="st21" d="M239.5,200.3c-0.9-0.5-2-0.6-3.3-0.1c-1.3,0.5-2.3,1.4-2.9,2.6c-1.3,2.6-1,6.1,1,7.8c-0.9-0.6-2.7-1.7-3-2
					c-1.7-1.7-1.9-4.9-0.8-7.3c0.6-1.3,1.6-2.4,3.1-2.9c1.1-0.4,2.1-0.4,2.9-0.1C236.9,198.5,238.6,199.7,239.5,200.3z"/>
			</g>
		</g>
		<g>
			
				<linearGradient id="XMLID_19_" gradientUnits="userSpaceOnUse" x1="287.6347" y1="-16169.1787" x2="303.7083" y2="-16109.1904" gradientTransform="matrix(1 0 0 -1 0 -15882)">
				<stop  offset="0" style="stop-color:#4C408B"/>
				<stop  offset="1" style="stop-color:#1E2034"/>
			</linearGradient>
			<polygon id="XMLID_20_" class="st22" points="271.3,273.3 271.3,241.1 295.6,225 320.1,241.1 320.1,273.3 295.8,289.4 			"/>
			
				<linearGradient id="XMLID_21_" gradientUnits="userSpaceOnUse" x1="291.6558" y1="-16138.0869" x2="299.6871" y2="-16108.1133" gradientTransform="matrix(1 0 0 -1 0 -15882)">
				<stop  offset="0" style="stop-color:#4C408B"/>
				<stop  offset="1" style="stop-color:#1E2034"/>
			</linearGradient>
			<polygon id="XMLID_49_" class="st23" points="295.6,225 320.1,241.1 295.8,257.2 271.3,241.1 			"/>
			
				<linearGradient id="XMLID_22_" gradientUnits="userSpaceOnUse" x1="302.6845" y1="-16127.752" x2="313.1208" y2="-16166.7012" gradientTransform="matrix(1 0 0 -1 0 -15882)">
				<stop  offset="0" style="stop-color:#4C408B"/>
				<stop  offset="1" style="stop-color:#1E2034"/>
			</linearGradient>
			<polygon id="XMLID_50_" class="st24" points="295.8,289.4 295.8,257.2 320.1,241.1 320.1,273.3 			"/>
			
				<linearGradient id="SVGID_15_" gradientUnits="userSpaceOnUse" x1="305.6874" y1="-16149.2256" x2="311.9411" y2="-16149.2256" gradientTransform="matrix(1 0 0 -1 0 -15882)">
				<stop  offset="0" style="stop-color:#6C00F9"/>
				<stop  offset="0.3236" style="stop-color:#6900F9"/>
				<stop  offset="0.5712" style="stop-color:#5F00F8"/>
				<stop  offset="0.7929" style="stop-color:#4F00F7"/>
				<stop  offset="0.9993" style="stop-color:#3800F6"/>
				<stop  offset="1" style="stop-color:#3800F6"/>
			</linearGradient>
			<polygon class="st25" points="311.9,251.7 305.7,256 305.7,282.8 311.9,278.4 			"/>
			
				<linearGradient id="SVGID_16_" gradientUnits="userSpaceOnUse" x1="279.0432" y1="334.9461" x2="286.4003" y2="362.4035" gradientTransform="matrix(1 0 0 -1 0 615.9562)">
				<stop  offset="0" style="stop-color:#6C00F9"/>
				<stop  offset="0.3236" style="stop-color:#6900F9"/>
				<stop  offset="0.5712" style="stop-color:#5F00F8"/>
				<stop  offset="0.7929" style="stop-color:#4F00F7"/>
				<stop  offset="0.9993" style="stop-color:#3800F6"/>
				<stop  offset="1" style="stop-color:#3800F6"/>
			</linearGradient>
			<polygon class="st26" points="285.8,282.8 279.6,278.5 279.6,251.7 285.8,256.1 			"/>
			<polygon class="st6" points="311.9,278.6 305.7,282.8 311.9,278.4 			"/>
			<polygon class="st7" points="279.6,278.7 279.6,278.5 285.8,282.8 			"/>
			<g>
				
					<linearGradient id="XMLID_23_" gradientUnits="userSpaceOnUse" x1="291.4474" y1="-16146.0439" x2="300.0637" y2="-16113.8867" gradientTransform="matrix(1 0 0 -1 0 -15882)">
					<stop  offset="0" style="stop-color:#4C408B"/>
					<stop  offset="1" style="stop-color:#1E2034"/>
				</linearGradient>
				<polygon id="XMLID_3_" class="st27" points="295.7,230.7 321.9,248 295.8,265.2 269.6,248 				"/>
				
					<linearGradient id="XMLID_24_" gradientUnits="userSpaceOnUse" x1="291.4474" y1="-16137.8447" x2="300.0637" y2="-16105.6875" gradientTransform="matrix(1 0 0 -1 0 -15882)">
					<stop  offset="0" style="stop-color:#4C408B"/>
					<stop  offset="1" style="stop-color:#1E2034"/>
				</linearGradient>
				<polygon id="XMLID_1_" class="st28" points="295.7,222.5 321.9,239.8 295.8,257 269.6,239.8 				"/>
				
					<linearGradient id="SVGID_17_" gradientUnits="userSpaceOnUse" x1="304.8225" y1="-16149.6318" x2="312.9328" y2="-16119.3643" gradientTransform="matrix(1 0 0 -1 0 -15882)">
					<stop  offset="0" style="stop-color:#4C408B"/>
					<stop  offset="1" style="stop-color:#1E2034"/>
				</linearGradient>
				<polygon class="st29" points="295.8,257 295.8,265.2 321.9,248 321.9,239.8 				"/>
				
					<linearGradient id="SVGID_18_" gradientUnits="userSpaceOnUse" x1="280.4198" y1="-16143.0889" x2="285.0237" y2="-16125.9072" gradientTransform="matrix(1 0 0 -1 0 -15882)">
					<stop  offset="0" style="stop-color:#4C408B"/>
					<stop  offset="1" style="stop-color:#1E2034"/>
				</linearGradient>
				<polygon class="st30" points="269.6,239.8 269.6,248 295.8,265.2 295.8,257 				"/>
			</g>
			
				<linearGradient id="SVGID_19_" gradientUnits="userSpaceOnUse" x1="306.1236" y1="-16134.3047" x2="312.3773" y2="-16134.3047" gradientTransform="matrix(1 0 0 -1 0 -15882)">
				<stop  offset="0" style="stop-color:#6C00F9"/>
				<stop  offset="0.3236" style="stop-color:#6900F9"/>
				<stop  offset="0.5712" style="stop-color:#5F00F8"/>
				<stop  offset="0.7929" style="stop-color:#4F00F7"/>
				<stop  offset="0.9993" style="stop-color:#3800F6"/>
				<stop  offset="1" style="stop-color:#3800F6"/>
			</linearGradient>
			<polygon class="st31" points="306.1,258.4 306.1,250.2 312.4,246.2 312.4,254.3 			"/>
			
				<linearGradient id="SVGID_20_" gradientUnits="userSpaceOnUse" x1="278.9544" y1="-16134.1143" x2="285.208" y2="-16134.1143" gradientTransform="matrix(1 0 0 -1 0 -15882)">
				<stop  offset="0" style="stop-color:#6C00F9"/>
				<stop  offset="0.3236" style="stop-color:#6900F9"/>
				<stop  offset="0.5712" style="stop-color:#5F00F8"/>
				<stop  offset="0.7929" style="stop-color:#4F00F7"/>
				<stop  offset="0.9993" style="stop-color:#3800F6"/>
				<stop  offset="1" style="stop-color:#3800F6"/>
			</linearGradient>
			<polygon class="st32" points="279,246 279,254.2 285.2,258.2 285.2,250.1 			"/>
			
				<linearGradient id="SVGID_21_" gradientUnits="userSpaceOnUse" x1="279.5949" y1="-16121.6201" x2="312.3773" y2="-16121.6201" gradientTransform="matrix(1 0 0 -1 0 -15882)">
				<stop  offset="0" style="stop-color:#6C00F9"/>
				<stop  offset="0.3236" style="stop-color:#6900F9"/>
				<stop  offset="0.5712" style="stop-color:#5F00F8"/>
				<stop  offset="0.7929" style="stop-color:#4F00F7"/>
				<stop  offset="0.9993" style="stop-color:#3800F6"/>
				<stop  offset="1" style="stop-color:#3800F6"/>
			</linearGradient>
			<polyline class="st33" points="306.1,250.2 279.6,233.2 285.8,229 312.4,246.2 			"/>
			
				<linearGradient id="SVGID_22_" gradientUnits="userSpaceOnUse" x1="278.9544" y1="-16121.3467" x2="311.0295" y2="-16121.3467" gradientTransform="matrix(1 0 0 -1 0 -15882)">
				<stop  offset="0" style="stop-color:#6C00F9"/>
				<stop  offset="0.3236" style="stop-color:#6900F9"/>
				<stop  offset="0.5712" style="stop-color:#5F00F8"/>
				<stop  offset="0.7929" style="stop-color:#4F00F7"/>
				<stop  offset="0.9993" style="stop-color:#3800F6"/>
				<stop  offset="1" style="stop-color:#3800F6"/>
			</linearGradient>
			<polyline class="st34" points="279,246 304.8,228.6 311,232.6 285.2,250.1 			"/>
			<g>
				<g>
					
						<linearGradient id="SVGID_23_" gradientUnits="userSpaceOnUse" x1="292.4182" y1="-16115.0352" x2="302.6661" y2="-16115.0352" gradientTransform="matrix(1 0 0 -1 0 -15882)">
						<stop  offset="0" style="stop-color:#8A00F9"/>
						<stop  offset="0.2428" style="stop-color:#8700F9"/>
						<stop  offset="0.4287" style="stop-color:#7D00F9"/>
						<stop  offset="0.5957" style="stop-color:#6D00F8"/>
						<stop  offset="0.7514" style="stop-color:#5600F8"/>
						<stop  offset="0.8981" style="stop-color:#3800F7"/>
						<stop  offset="1" style="stop-color:#1F00F6"/>
					</linearGradient>
					<path class="st35" d="M302.7,227.7c-0.7-0.3-1.6-0.1-2.6,0.5c-3.4,2.1-3.2,6.8-3.3,10c0,1.4-0.1,2.5-0.5,3c0,0-0.1,0.1-0.2,0.2
						l-3.6-3.1c0.6-0.7,0.5-2.5,0.6-4.6c0.1-3,0.4-6.7,3.3-8.4c1.6-1,2.6-0.4,3.6,0.3C300.5,226,302.1,227.2,302.7,227.7z"/>
					
						<linearGradient id="SVGID_24_" gradientUnits="userSpaceOnUse" x1="292.4182" y1="-16119.7412" x2="296.7689" y2="-16119.7412" gradientTransform="matrix(1 0 0 -1 0 -15882)">
						<stop  offset="0" style="stop-color:#8A00F9"/>
						<stop  offset="0.2428" style="stop-color:#8700F9"/>
						<stop  offset="0.4287" style="stop-color:#7D00F9"/>
						<stop  offset="0.5957" style="stop-color:#6D00F8"/>
						<stop  offset="0.7514" style="stop-color:#5600F8"/>
						<stop  offset="0.8981" style="stop-color:#3800F7"/>
						<stop  offset="1" style="stop-color:#1F00F6"/>
					</linearGradient>
					<path class="st36" d="M296.3,241.2c0,0-0.1,0.2-0.3,0.4l-0.7,0.3l-2.8-3.5c0.6-0.7,0.5-2.5,0.6-4.6c0,0.1,0,0.2,0,0.3
						c0,3.8,3.8,5.3,3.8,5.3S296.7,240.7,296.3,241.2z"/>
					
						<linearGradient id="SVGID_25_" gradientUnits="userSpaceOnUse" x1="295.9398" y1="-16116.5332" x2="304.3696" y2="-16116.5332" gradientTransform="matrix(1 0 0 -1 0 -15882)">
						<stop  offset="0" style="stop-color:#8A00F9"/>
						<stop  offset="0.2428" style="stop-color:#8700F9"/>
						<stop  offset="0.4287" style="stop-color:#7D00F9"/>
						<stop  offset="0.5957" style="stop-color:#6D00F8"/>
						<stop  offset="0.7514" style="stop-color:#5600F8"/>
						<stop  offset="0.8981" style="stop-color:#3800F7"/>
						<stop  offset="1" style="stop-color:#1F00F6"/>
					</linearGradient>
					<path class="st37" d="M300.4,238.4c-6.1,4.6-4.1,2.8-4.1,2.8c0.6-0.7,0.5-2.5,0.6-4.7c0.1-0.1,0.2-0.1,0.2-0.2
						c2.5-1.9,3.8-4.5,4-6.7c0.1-0.7,0-1.3-0.1-1.9c1.5-0.5,2.6,0.1,3.1,1.4C305,231.4,304.1,235.6,300.4,238.4z"/>
					
						<linearGradient id="SVGID_26_" gradientUnits="userSpaceOnUse" x1="300.9489" y1="-16110.5527" x2="304.0283" y2="-16110.5527" gradientTransform="matrix(1 0 0 -1 0 -15882)">
						<stop  offset="0" style="stop-color:#8A00F9"/>
						<stop  offset="0.2428" style="stop-color:#8700F9"/>
						<stop  offset="0.4287" style="stop-color:#7D00F9"/>
						<stop  offset="0.5957" style="stop-color:#6D00F8"/>
						<stop  offset="0.7514" style="stop-color:#5600F8"/>
						<stop  offset="0.8981" style="stop-color:#3800F7"/>
						<stop  offset="1" style="stop-color:#1F00F6"/>
					</linearGradient>
					<path class="st38" d="M301,229.6c0.1-0.7,0-1.3-0.1-1.9c1.5-0.5,2.6,0.1,3.1,1.4C303.1,229.2,302,229.4,301,229.6z"/>
				</g>
				
					<linearGradient id="SVGID_27_" gradientUnits="userSpaceOnUse" x1="284.3263" y1="-16120.6826" x2="296.5534" y2="-16120.6826" gradientTransform="matrix(1 0 0 -1 0 -15882)">
					<stop  offset="0" style="stop-color:#8A00F9"/>
					<stop  offset="0.2428" style="stop-color:#8700F9"/>
					<stop  offset="0.4287" style="stop-color:#7D00F9"/>
					<stop  offset="0.5957" style="stop-color:#6D00F8"/>
					<stop  offset="0.7514" style="stop-color:#5600F8"/>
					<stop  offset="0.8981" style="stop-color:#3800F7"/>
					<stop  offset="1" style="stop-color:#1F00F6"/>
				</linearGradient>
				<path class="st39" d="M296.4,241.1c-1.7,0-2.9-8.4-7.7-8.3c1.9,2.5,2.8,6.1,3.9,6.2c0,0,1.4-0.2-5.4,2.8
					c-1.1,0.5-2.1,0.7-2.9,0.7c1.1,1.9,3.4,2.9,6.7,1.4C297.8,240.9,296.4,241.1,296.4,241.1z"/>
				
					<linearGradient id="SVGID_28_" gradientUnits="userSpaceOnUse" x1="280.7915" y1="-16119.2803" x2="290.5442" y2="-16119.2803" gradientTransform="matrix(1 0 0 -1 0 -15882)">
					<stop  offset="0" style="stop-color:#8A00F9"/>
					<stop  offset="0.2428" style="stop-color:#8700F9"/>
					<stop  offset="0.4287" style="stop-color:#7D00F9"/>
					<stop  offset="0.5957" style="stop-color:#6D00F8"/>
					<stop  offset="0.7514" style="stop-color:#5600F8"/>
					<stop  offset="0.8981" style="stop-color:#3800F7"/>
					<stop  offset="1" style="stop-color:#1F00F6"/>
				</linearGradient>
				<path class="st40" d="M290.5,233.2c-0.9-0.5-2-0.6-3.3-0.1c-1.3,0.5-2.3,1.4-2.9,2.6c-1.3,2.6-1,6.1,1,7.8c-0.9-0.6-2.7-1.7-3-2
					c-1.7-1.7-1.9-4.9-0.8-7.3c0.6-1.3,1.6-2.4,3.1-2.9c1.1-0.4,2.1-0.4,2.9-0.1C287.9,231.4,289.6,232.6,290.5,233.2z"/>
			</g>
		</g>
		<polygon id="XMLID_12_" class="st41" points="221,283 221,250.9 245.3,234.8 269.8,250.8 269.8,283 245.5,299.1 		"/>
		
			<linearGradient id="XMLID_25_" gradientUnits="userSpaceOnUse" x1="241.3565" y1="-16147.835" x2="249.3878" y2="-16117.8623" gradientTransform="matrix(1 0 0 -1 0 -15882)">
			<stop  offset="0" style="stop-color:#4C408B"/>
			<stop  offset="1" style="stop-color:#1E2034"/>
		</linearGradient>
		<polygon id="XMLID_11_" class="st42" points="245.3,234.8 269.8,250.8 245.5,266.9 221,250.9 		"/>
		<polygon id="XMLID_8_" class="st43" points="245.5,299.1 245.5,266.9 269.8,250.8 269.8,283 		"/>
		
			<linearGradient id="SVGID_29_" gradientUnits="userSpaceOnUse" x1="255.3881" y1="-16158.9746" x2="261.6418" y2="-16158.9746" gradientTransform="matrix(1 0 0 -1 0 -15882)">
			<stop  offset="0" style="stop-color:#6C00F9"/>
			<stop  offset="0.3236" style="stop-color:#6900F9"/>
			<stop  offset="0.5712" style="stop-color:#5F00F8"/>
			<stop  offset="0.7929" style="stop-color:#4F00F7"/>
			<stop  offset="0.9993" style="stop-color:#3800F6"/>
			<stop  offset="1" style="stop-color:#3800F6"/>
		</linearGradient>
		<polygon class="st44" points="261.6,261.4 255.4,265.7 255.4,292.5 261.6,288.2 		"/>
		
			<linearGradient id="SVGID_30_" gradientUnits="userSpaceOnUse" x1="228.7438" y1="325.1974" x2="236.1009" y2="352.6548" gradientTransform="matrix(1 0 0 -1 0 615.9562)">
			<stop  offset="0" style="stop-color:#6C00F9"/>
			<stop  offset="0.3236" style="stop-color:#6900F9"/>
			<stop  offset="0.5712" style="stop-color:#5F00F8"/>
			<stop  offset="0.7929" style="stop-color:#4F00F7"/>
			<stop  offset="0.9993" style="stop-color:#3800F6"/>
			<stop  offset="1" style="stop-color:#3800F6"/>
		</linearGradient>
		<polygon class="st45" points="235.5,292.6 229.3,288.3 229.3,261.5 235.5,265.8 		"/>
		<polygon class="st6" points="261.6,288.4 255.4,292.5 261.6,288.2 		"/>
		<polygon class="st7" points="229.3,288.5 229.3,288.3 235.5,292.6 		"/>
		<g>
			<polygon id="XMLID_6_" class="st46" points="245.4,240.5 271.6,257.7 245.5,275 219.3,257.7 			"/>
			<polygon id="XMLID_4_" class="st46" points="245.4,232.3 271.6,249.5 245.5,266.8 219.3,249.5 			"/>
			<polygon class="st46" points="245.5,266.8 245.5,275 271.6,257.7 271.6,249.5 			"/>
			<polygon class="st46" points="219.3,249.5 219.3,257.7 245.5,275 245.5,266.8 			"/>
		</g>
		
			<linearGradient id="SVGID_31_" gradientUnits="userSpaceOnUse" x1="255.8242" y1="-16144.0527" x2="262.0779" y2="-16144.0527" gradientTransform="matrix(1 0 0 -1 0 -15882)">
			<stop  offset="0" style="stop-color:#6C00F9"/>
			<stop  offset="0.3236" style="stop-color:#6900F9"/>
			<stop  offset="0.5712" style="stop-color:#5F00F8"/>
			<stop  offset="0.7929" style="stop-color:#4F00F7"/>
			<stop  offset="0.9993" style="stop-color:#3800F6"/>
			<stop  offset="1" style="stop-color:#3800F6"/>
		</linearGradient>
		<polygon class="st47" points="255.8,268.2 255.8,260 262.1,255.9 262.1,264 		"/>
		
			<linearGradient id="SVGID_32_" gradientUnits="userSpaceOnUse" x1="228.655" y1="-16143.8633" x2="234.9087" y2="-16143.8633" gradientTransform="matrix(1 0 0 -1 0 -15882)">
			<stop  offset="0" style="stop-color:#6C00F9"/>
			<stop  offset="0.3236" style="stop-color:#6900F9"/>
			<stop  offset="0.5712" style="stop-color:#5F00F8"/>
			<stop  offset="0.7929" style="stop-color:#4F00F7"/>
			<stop  offset="0.9993" style="stop-color:#3800F6"/>
			<stop  offset="1" style="stop-color:#3800F6"/>
		</linearGradient>
		<polygon class="st48" points="228.7,255.7 228.7,263.9 234.9,268 234.9,259.9 		"/>
		
			<linearGradient id="SVGID_33_" gradientUnits="userSpaceOnUse" x1="229.2955" y1="-16131.3682" x2="262.0779" y2="-16131.3682" gradientTransform="matrix(1 0 0 -1 0 -15882)">
			<stop  offset="0" style="stop-color:#6C00F9"/>
			<stop  offset="0.3236" style="stop-color:#6900F9"/>
			<stop  offset="0.5712" style="stop-color:#5F00F8"/>
			<stop  offset="0.7929" style="stop-color:#4F00F7"/>
			<stop  offset="0.9993" style="stop-color:#3800F6"/>
			<stop  offset="1" style="stop-color:#3800F6"/>
		</linearGradient>
		<polyline class="st49" points="255.8,260 229.3,242.9 235.5,238.8 262.1,255.9 		"/>
		
			<linearGradient id="SVGID_34_" gradientUnits="userSpaceOnUse" x1="228.655" y1="-16131.0947" x2="260.7301" y2="-16131.0947" gradientTransform="matrix(1 0 0 -1 0 -15882)">
			<stop  offset="0" style="stop-color:#6C00F9"/>
			<stop  offset="0.3236" style="stop-color:#6900F9"/>
			<stop  offset="0.5712" style="stop-color:#5F00F8"/>
			<stop  offset="0.7929" style="stop-color:#4F00F7"/>
			<stop  offset="0.9993" style="stop-color:#3800F6"/>
			<stop  offset="1" style="stop-color:#3800F6"/>
		</linearGradient>
		<polyline class="st50" points="228.7,255.7 254.5,238.3 260.7,242.3 234.9,259.9 		"/>
		<g>
			<g>
				
					<linearGradient id="SVGID_35_" gradientUnits="userSpaceOnUse" x1="250.7452" y1="-16124.7842" x2="195.721" y2="-16124.7842" gradientTransform="matrix(1 0 0 -1 0 -15882)">
					<stop  offset="0" style="stop-color:#8A00F9"/>
					<stop  offset="0.2428" style="stop-color:#8700F9"/>
					<stop  offset="0.4287" style="stop-color:#7D00F9"/>
					<stop  offset="0.5957" style="stop-color:#6D00F8"/>
					<stop  offset="0.7514" style="stop-color:#5600F8"/>
					<stop  offset="0.8981" style="stop-color:#3800F7"/>
					<stop  offset="1" style="stop-color:#1F00F6"/>
				</linearGradient>
				<path class="st51" d="M252.4,237.4c-0.7-0.3-1.6-0.1-2.6,0.5c-3.4,2.1-3.2,6.8-3.3,10c0,1.4-0.1,2.5-0.5,3c0,0-0.1,0.1-0.2,0.2
					l-3.6-3.1c0.6-0.7,0.5-2.5,0.6-4.6c0.1-3,0.4-6.7,3.3-8.4c1.6-1,2.6-0.4,3.6,0.3C250.2,235.7,251.8,236.9,252.4,237.4z"/>
				
					<linearGradient id="SVGID_36_" gradientUnits="userSpaceOnUse" x1="250.7452" y1="-16129.4902" x2="195.721" y2="-16129.4902" gradientTransform="matrix(1 0 0 -1 0 -15882)">
					<stop  offset="0" style="stop-color:#8A00F9"/>
					<stop  offset="0.2428" style="stop-color:#8700F9"/>
					<stop  offset="0.4287" style="stop-color:#7D00F9"/>
					<stop  offset="0.5957" style="stop-color:#6D00F8"/>
					<stop  offset="0.7514" style="stop-color:#5600F8"/>
					<stop  offset="0.8981" style="stop-color:#3800F7"/>
					<stop  offset="1" style="stop-color:#1F00F6"/>
				</linearGradient>
				<path class="st52" d="M246,250.9c0,0-0.1,0.2-0.3,0.4l-0.7,0.3l-2.8-3.5c0.6-0.7,0.5-2.5,0.6-4.6c0,0.1,0,0.2,0,0.3
					c0,3.8,3.8,5.3,3.8,5.3S246.4,250.4,246,250.9z"/>
				
					<linearGradient id="SVGID_37_" gradientUnits="userSpaceOnUse" x1="250.7452" y1="-16126.2822" x2="195.721" y2="-16126.2822" gradientTransform="matrix(1 0 0 -1 0 -15882)">
					<stop  offset="0" style="stop-color:#8A00F9"/>
					<stop  offset="0.2428" style="stop-color:#8700F9"/>
					<stop  offset="0.4287" style="stop-color:#7D00F9"/>
					<stop  offset="0.5957" style="stop-color:#6D00F8"/>
					<stop  offset="0.7514" style="stop-color:#5600F8"/>
					<stop  offset="0.8981" style="stop-color:#3800F7"/>
					<stop  offset="1" style="stop-color:#1F00F6"/>
				</linearGradient>
				<path class="st53" d="M250.1,248.2c-6.1,4.6-4.1,2.8-4.1,2.8c0.6-0.7,0.5-2.5,0.6-4.7c0.1-0.1,0.2-0.1,0.2-0.2
					c2.5-1.9,3.8-4.5,4-6.7c0.1-0.7,0-1.3-0.1-1.9c1.5-0.5,2.6,0.1,3.1,1.4C254.7,241.1,253.8,245.4,250.1,248.2z"/>
				
					<linearGradient id="SVGID_38_" gradientUnits="userSpaceOnUse" x1="250.7452" y1="-16120.3018" x2="195.721" y2="-16120.3018" gradientTransform="matrix(1 0 0 -1 0 -15882)">
					<stop  offset="0" style="stop-color:#8A00F9"/>
					<stop  offset="0.2428" style="stop-color:#8700F9"/>
					<stop  offset="0.4287" style="stop-color:#7D00F9"/>
					<stop  offset="0.5957" style="stop-color:#6D00F8"/>
					<stop  offset="0.7514" style="stop-color:#5600F8"/>
					<stop  offset="0.8981" style="stop-color:#3800F7"/>
					<stop  offset="1" style="stop-color:#1F00F6"/>
				</linearGradient>
				<path class="st54" d="M250.7,239.3c0.1-0.7,0-1.3-0.1-1.9c1.5-0.5,2.6,0.1,3.1,1.4C252.8,239,251.7,239.2,250.7,239.3z"/>
			</g>
			
				<linearGradient id="SVGID_39_" gradientUnits="userSpaceOnUse" x1="250.7452" y1="-16130.4307" x2="195.721" y2="-16130.4307" gradientTransform="matrix(1 0 0 -1 0 -15882)">
				<stop  offset="0" style="stop-color:#8A00F9"/>
				<stop  offset="0.2428" style="stop-color:#8700F9"/>
				<stop  offset="0.4287" style="stop-color:#7D00F9"/>
				<stop  offset="0.5957" style="stop-color:#6D00F8"/>
				<stop  offset="0.7514" style="stop-color:#5600F8"/>
				<stop  offset="0.8981" style="stop-color:#3800F7"/>
				<stop  offset="1" style="stop-color:#1F00F6"/>
			</linearGradient>
			<path class="st55" d="M246.1,250.8c-1.7,0-2.9-8.4-7.7-8.3c1.9,2.5,2.8,6.1,3.9,6.2c0,0,1.4-0.2-5.4,2.8
				c-1.1,0.5-2.1,0.7-2.9,0.7c1.1,1.9,3.4,2.9,6.7,1.4C247.5,250.7,246.1,250.8,246.1,250.8z"/>
			
				<linearGradient id="SVGID_40_" gradientUnits="userSpaceOnUse" x1="250.7452" y1="-16129.0293" x2="195.721" y2="-16129.0293" gradientTransform="matrix(1 0 0 -1 0 -15882)">
				<stop  offset="0" style="stop-color:#8A00F9"/>
				<stop  offset="0.2428" style="stop-color:#8700F9"/>
				<stop  offset="0.4287" style="stop-color:#7D00F9"/>
				<stop  offset="0.5957" style="stop-color:#6D00F8"/>
				<stop  offset="0.7514" style="stop-color:#5600F8"/>
				<stop  offset="0.8981" style="stop-color:#3800F7"/>
				<stop  offset="1" style="stop-color:#1F00F6"/>
			</linearGradient>
			<path class="st56" d="M240.2,242.9c-0.9-0.5-2-0.6-3.3-0.1c-1.3,0.5-2.3,1.4-2.9,2.6c-1.3,2.6-1,6.1,1,7.8c-0.9-0.6-2.7-1.7-3-2
				c-1.7-1.7-1.9-4.9-0.8-7.3c0.6-1.3,1.6-2.4,3.1-2.9c1.1-0.4,2.1-0.4,2.9-0.1C237.6,241.2,239.3,242.3,240.2,242.9z"/>
		</g>
	</g>
</g>
<g id="BACKGROUND">
</g>
<g id="OBJECTS">
	<g>
		<g>
			<g class="st57">
				<g>
					<path class="st46" d="M140.8,284l0.1,25.3c0,0.1,0,0.2-0.1,0.2l-22,12.7c-0.2,0.1-0.4,0-0.4-0.2l-0.1-25.3c0-0.1,0-0.2,0.1-0.2
						l22-12.7C140.6,283.7,140.8,283.8,140.8,284z"/>
				</g>
				<g>
					<path class="st58" d="M118,322.3L96.8,310c-0.1,0-0.1-0.1-0.1-0.2l-0.1-25.3c0-0.2,0.2-0.3,0.4-0.2l21.1,12.3
						c0.1,0,0.1,0.1,0.1,0.2l0.1,25.3C118.3,322.3,118.1,322.4,118,322.3z"/>
				</g>
				<g>
					<path class="st59" d="M118.1,296.6L97,284.3c-0.2-0.1-0.2-0.3,0-0.4l22-12.7c0.1,0,0.2,0,0.2,0l21.1,12.3
						c0.2,0.1,0.2,0.3,0,0.4l-22,12.7C118.3,296.6,118.2,296.6,118.1,296.6z"/>
				</g>
			</g>
		</g>
		<g>
			<g class="st57">
				<g>
					<path class="st60" d="M140.8,284l0.1,25.3c0,0.1,0,0.2-0.1,0.2l-22,12.7c-0.2,0.1-0.4,0-0.4-0.2l-0.1-25.3c0-0.1,0-0.2,0.1-0.2
						l22-12.7C140.6,283.7,140.8,283.8,140.8,284z"/>
				</g>
				<g>
					<path class="st60" d="M118,322.3L96.8,310c-0.1,0-0.1-0.1-0.1-0.2l-0.1-25.3c0-0.2,0.2-0.3,0.4-0.2l21.1,12.3
						c0.1,0,0.1,0.1,0.1,0.2l0.1,25.3C118.3,322.3,118.1,322.4,118,322.3z"/>
				</g>
				<g>
					<path class="st60" d="M118.1,296.6L97,284.3c-0.2-0.1-0.2-0.3,0-0.4l22-12.7c0.1,0,0.2,0,0.2,0l21.1,12.3
						c0.2,0.1,0.2,0.3,0,0.4l-22,12.7C118.3,296.6,118.2,296.6,118.1,296.6z"/>
				</g>
			</g>
		</g>
		<polygon class="st61" points="108.5,291 106.2,289.6 128.7,276.6 131,278 		"/>
		<polygon class="st61" points="108.5,291 106.2,289.6 128.7,276.6 131,278 		"/>
		<polygon class="st62" points="108.5,316.7 106.2,315.4 106.2,289.7 108.5,291 		"/>
		<polygon class="st61" points="128.7,290.6 131.1,289.3 109.4,276.7 107,278.1 		"/>
		<polygon class="st62" points="128.7,316.4 131.1,315.1 131.1,289.3 128.7,290.6 		"/>
		<g>
			<g>
				<g class="st57">
					<path class="st61" d="M128.7,275.9l-1.9-1.1c0.3,0.1,0.4,0.4,0.4,0.8c0,0.3-0.1,0.6-0.3,1c-0.8,1.2-2.6,2.5-4.4,3.5
						c-1.9,1.1-3.7,1.9-4.2,2.1l1.9,1.1c0.5-0.2,2.3-1,4.2-2.1c1.8-1,3.6-2.3,4.4-3.5c0.2-0.4,0.3-0.7,0.3-1
						C129.1,276.3,129,276,128.7,275.9z"/>
					<g>
						<polygon class="st61" points="119.9,283.6 118,282.5 118.1,282.4 120,283.5 						"/>
					</g>
					<g>
						<path class="st61" d="M127.4,275.6c1.2-0.4,1.9,0,1.9,0.9c0,0.4-0.1,0.8-0.4,1.2c-0.8,1.3-2.7,2.6-4.5,3.6
							c-2.1,1.2-4.2,2.1-4.3,2.2l-0.1,0.1l0.1-0.2c0.8-2.3,2.3-4.1,3.4-5.2c0.8-0.8,1.7-1.5,2.6-2
							C126.5,276,126.9,275.8,127.4,275.6z M128.8,277.7c0.2-0.4,0.3-0.7,0.3-1c0-0.9-0.7-1.2-1.8-0.8c-0.5,0.2-1,0.4-1.5,0.7
							c-2.7,1.5-4.8,4.7-5.6,6.8c0.5-0.2,2.3-1,4.2-2.1C126.2,280.2,128,278.9,128.8,277.7"/>
					</g>
					<path class="st61" d="M126.9,274.5c-0.3-0.2-0.8-0.2-1.5,0c-0.4,0.1-0.9,0.4-1.4,0.6c-0.9,0.5-1.8,1.2-2.6,2
						c-1.1,1.1-2.5,2.8-3.4,5.2l1.9,1.1c0.8-2.3,2.3-4.1,3.4-5.2c0.8-0.8,1.7-1.5,2.6-2c0.5-0.3,1-0.5,1.4-0.6
						c0.7-0.2,1.2-0.2,1.5,0L126.9,274.5z"/>
				</g>
			</g>
			<g>
				<g class="st57">
					<path class="st61" d="M119.2,282.7l-1.9-1.1c0.4,0.2,0.6,0.5,0.8,0.8c-0.5,0.4-2.3,1.6-4.2,2.7c-1.8,1-3.6,1.9-4.4,1.6
						c0,0,0,0-0.1,0l1.9,1.1c0,0,0,0,0.1,0c0.8,0.3,2.6-0.5,4.4-1.6c1.9-1.1,3.7-2.4,4.2-2.7C119.9,283.2,119.6,282.9,119.2,282.7z"
						/>
					<g>
						<path class="st61" d="M120.3,283.4l0.1,0.1l-0.1,0.1c-0.2,0.1-2.2,1.6-4.3,2.8c-1.8,1.1-3.7,1.9-4.5,1.6
							c-0.3-0.1-0.4-0.4-0.4-0.7c0-1,0.7-2.1,1.9-3.2c0.4-0.4,0.9-0.7,1.4-1c0.9-0.5,1.8-0.8,2.6-1C118,281.9,119.5,282,120.3,283.4
							z M115.9,286.2c1.9-1.1,3.7-2.4,4.2-2.7c-0.8-1.2-2.9-1.9-5.6-0.3c-0.5,0.3-1,0.6-1.5,1.1c-1.1,1-1.8,2-1.8,2.9
							c0,0.3,0.1,0.5,0.3,0.6C112.3,288,114.1,287.2,115.9,286.2"/>
					</g>
					<g>
						<path class="st61" d="M111.3,287.9l-1.9-1.1c-0.2-0.1-0.3-0.4-0.3-0.7c0-1,0.7-2.1,1.9-3.2c0.4-0.4,0.9-0.7,1.4-1
							c0.9-0.5,1.8-0.8,2.6-1c0.7-0.1,1.6-0.1,2.4,0.3l1.9,1.1c-0.8-0.4-1.7-0.4-2.4-0.3c-0.8,0.1-1.7,0.5-2.6,1
							c-0.5,0.3-1,0.6-1.4,1c-1.2,1-1.9,2.2-1.9,3.2C111,287.5,111.1,287.8,111.3,287.9z"/>
					</g>
				</g>
			</g>
		</g>
	</g>
	<g>
		<g>
			<g class="st57">
				<g>
					<path class="st43" d="M144.8,168.5l0.1,25.3c0,0.1,0,0.2-0.1,0.2l-22,12.7c-0.2,0.1-0.4,0-0.4-0.2l-0.1-25.3
						c0-0.1,0-0.2,0.1-0.2l22-12.7C144.6,168.2,144.8,168.3,144.8,168.5z"/>
				</g>
				<g>
					<path class="st41" d="M121.9,206.7l-21.1-12.3c-0.1,0-0.1-0.1-0.1-0.2l-0.1-25.3c0-0.2,0.2-0.3,0.4-0.2l21.1,12.3
						c0.1,0,0.1,0.1,0.1,0.2l0.1,25.3C122.3,206.7,122.1,206.8,121.9,206.7z"/>
				</g>
				<g>
					<path class="st63" d="M122.1,181L101,168.7c-0.2-0.1-0.2-0.3,0-0.4l22-12.7c0.1,0,0.2,0,0.2,0l21.1,12.3c0.2,0.1,0.2,0.3,0,0.4
						l-22,12.7C122.3,181,122.2,181,122.1,181z"/>
				</g>
			</g>
		</g>
		<g>
			<g class="st57">
				<g>
					<path class="st60" d="M144.8,168.5l0.1,25.3c0,0.1,0,0.2-0.1,0.2l-22,12.7c-0.2,0.1-0.4,0-0.4-0.2l-0.1-25.3
						c0-0.1,0-0.2,0.1-0.2l22-12.7C144.6,168.2,144.8,168.3,144.8,168.5z"/>
				</g>
				<g>
					<path class="st60" d="M121.9,206.7l-21.1-12.3c-0.1,0-0.1-0.1-0.1-0.2l-0.1-25.3c0-0.2,0.2-0.3,0.4-0.2l21.1,12.3
						c0.1,0,0.1,0.1,0.1,0.2l0.1,25.3C122.3,206.7,122.1,206.8,121.9,206.7z"/>
				</g>
				<g>
					<path class="st60" d="M122.1,181L101,168.7c-0.2-0.1-0.2-0.3,0-0.4l22-12.7c0.1,0,0.2,0,0.2,0l21.1,12.3c0.2,0.1,0.2,0.3,0,0.4
						l-22,12.7C122.3,181,122.2,181,122.1,181z"/>
				</g>
			</g>
		</g>
		<polygon class="st61" points="112.5,175.4 110.2,174.1 132.6,161.1 135,162.4 		"/>
		<polygon class="st61" points="112.5,175.4 110.2,174.1 132.6,161.1 135,162.4 		"/>
		<polygon class="st62" points="112.5,201.2 110.2,199.8 110.2,174.1 112.5,175.5 		"/>
		<polygon class="st61" points="132.7,175.1 135,173.7 113.3,161.1 111,162.5 		"/>
		<polygon class="st62" points="132.7,200.9 135,199.5 135,173.7 132.7,175.1 		"/>
		<g>
			<g>
				<g class="st57">
					<path class="st61" d="M132.7,160.3l-1.9-1.1c0.3,0.1,0.4,0.4,0.4,0.8c0,0.3-0.1,0.6-0.3,1c-0.8,1.2-2.6,2.5-4.4,3.5
						c-1.9,1.1-3.7,1.9-4.2,2.1l1.9,1.1c0.5-0.2,2.3-1,4.2-2.1c1.8-1,3.6-2.3,4.4-3.5c0.2-0.4,0.3-0.7,0.3-1
						C133.1,160.7,133,160.4,132.7,160.3z"/>
					<g>
						<polygon class="st61" points="123.9,168.1 122,167 122,166.8 124,167.9 						"/>
					</g>
					<g>
						<path class="st61" d="M131.4,160.1c1.2-0.4,1.9,0,1.9,0.9c0,0.4-0.1,0.8-0.4,1.2c-0.8,1.3-2.7,2.6-4.5,3.6
							c-2.1,1.2-4.2,2.1-4.3,2.2l-0.1,0.1l0.1-0.2c0.8-2.3,2.3-4.1,3.4-5.2c0.8-0.8,1.7-1.5,2.6-2
							C130.4,160.4,130.9,160.2,131.4,160.1z M132.8,162.1c0.2-0.4,0.3-0.7,0.3-1c0-0.9-0.7-1.2-1.8-0.8c-0.5,0.2-1,0.4-1.5,0.7
							c-2.7,1.5-4.8,4.7-5.6,6.8c0.5-0.2,2.3-1,4.2-2.1C130.2,164.6,132,163.3,132.8,162.1"/>
					</g>
					<path class="st61" d="M130.9,158.9c-0.3-0.2-0.8-0.2-1.5,0c-0.4,0.1-0.9,0.4-1.4,0.6c-0.9,0.5-1.8,1.2-2.6,2
						c-1.1,1.1-2.5,2.8-3.4,5.2l1.9,1.1c0.8-2.3,2.3-4.1,3.4-5.2c0.8-0.8,1.7-1.5,2.6-2c0.5-0.3,1-0.5,1.4-0.6
						c0.7-0.2,1.2-0.2,1.5,0L130.9,158.9z"/>
				</g>
			</g>
			<g>
				<g class="st57">
					<path class="st61" d="M123.2,167.1l-1.9-1.1c0.4,0.2,0.6,0.5,0.8,0.8c-0.5,0.4-2.3,1.6-4.2,2.7c-1.8,1-3.6,1.9-4.4,1.6
						c0,0,0,0-0.1,0l1.9,1.1c0,0,0,0,0.1,0c0.8,0.3,2.6-0.5,4.4-1.6c1.9-1.1,3.7-2.4,4.2-2.7C123.8,167.6,123.6,167.3,123.2,167.1z"
						/>
					<g>
						<path class="st61" d="M124.3,167.8l0.1,0.1l-0.1,0.1c-0.2,0.1-2.2,1.6-4.3,2.8c-1.8,1.1-3.7,1.9-4.5,1.6
							c-0.3-0.1-0.4-0.4-0.4-0.7c0-1,0.7-2.1,1.9-3.2c0.4-0.4,0.9-0.7,1.4-1c0.9-0.5,1.8-0.8,2.6-1
							C122,166.3,123.5,166.4,124.3,167.8z M119.9,170.6c1.9-1.1,3.7-2.4,4.2-2.7c-0.8-1.2-2.9-1.9-5.6-0.3c-0.5,0.3-1,0.6-1.5,1.1
							c-1.1,1-1.8,2-1.8,2.9c0,0.3,0.1,0.5,0.3,0.6C116.2,172.5,118.1,171.6,119.9,170.6"/>
					</g>
					<g>
						<path class="st61" d="M115.3,172.4l-1.9-1.1c-0.2-0.1-0.3-0.4-0.3-0.7c0-1,0.7-2.1,1.9-3.2c0.4-0.4,0.9-0.7,1.4-1
							c0.9-0.5,1.8-0.8,2.6-1c0.7-0.1,1.6-0.1,2.4,0.3l1.9,1.1c-0.8-0.4-1.7-0.4-2.4-0.3c-0.8,0.1-1.7,0.5-2.6,1
							c-0.5,0.3-1,0.6-1.4,1c-1.2,1-1.9,2.2-1.9,3.2C114.9,172,115.1,172.2,115.3,172.4z"/>
					</g>
				</g>
			</g>
		</g>
	</g>
	<g>
		<g>
			<g>
				<g class="st57">
					<g>
						<path class="st64" d="M182.7,287.6c1.6-1,3.3-1.9,4.9-2.9c0.7-0.4,1.6-0.9,2.3-1.3c0.7-0.4,1.5-0.9,2.2-1.3
							c3.6-2.1,7.2-4.2,10.8-6.3c2.1-1.2,10.6,1.9,20,7.4L202.8,295C193.3,289.5,184.8,286.4,182.7,287.6z"/>
					</g>
					<g>
						<path class="st64" d="M244,299.7c0,9.7,0.1,19.4,0.1,29.1c0,0,0,0-0.1-0.1l-0.1-28.6C244,300,244,299.8,244,299.7z"/>
					</g>
					<g>
						<polygon class="st65" points="223,283.2 202.8,295 207.3,297.6 227.6,285.9 						"/>
						<path class="st65" d="M227.6,285.9l-20.3,11.7c10.1,5.9,17.4,12.2,16.2,14.2c0,0,20.3-11.7,20.3-11.7
							C245,298.2,237.7,291.8,227.6,285.9z"/>
					</g>
					<g>
						<path class="st64" d="M244.1,328.8c-15.3,8.9-30.7,17.7-46,26.6c-2.5,1.5-5.9,3.4-8.4,4.9c-2.5,1.5-5.9,3.4-8.4,4.9
							c-1.3,0.7-2.9,1.7-4.2,2.4c-1.2,0.7-2.9,1.7-4.2,2.4c-2.5,1.4-5.8,3.3-8.3,4.8c-1.2,0.7-2.8,1.7-4.1,2.4
							c0.2-0.1,0.3-0.2,0.3-0.3l83.1-48C244,328.7,244.1,328.8,244.1,328.8z"/>
					</g>
					<g>
						<path class="st65" d="M119.5,335.6c0,2,0,4,0,6c0,2.9,0,5.9,0,8.8l0,2.8c0,2.4,7,8.3,16.4,13.7l-0.1-33.3
							c-9.4-5.5-16.4-9.5-16.4-9.5C119.5,328,119.5,331.8,119.5,335.6z"/>
						<path class="st65" d="M160.8,348.1c-1.1-0.7-10.3-6-20.4-11.8l-4.6-2.7l0.1,33.3l4.6,2.7c10.1,5.9,19.2,9,20.4,7.1
							C160.8,376.7,160.8,348.1,160.8,348.1z"/>
					</g>
					<path class="st66" d="M162.2,323.7l-4.6-2.7c-9.4-5.5-16.4-9.5-16.4-9.5c-5.5,3.2-11,6.3-16.4,9.5c-1.8,1-3.6,2.1-5.4,3.1
						c0,0,6.9,4.1,16.4,9.5l4.6,2.7c10.1,5.9,19.2,11.2,20.4,11.8c0,0,21.8-12.6,21.8-12.6C181.4,334.9,172.3,329.6,162.2,323.7z"/>
					<g>
						<path class="st64" d="M223.3,169.5c0.1,25.5,0.1,51,0.2,76.5c0,16.9,0.1,33.8,0.1,50.7c0,4.9,0,9.8,0,14.8
							c0,0.2,0,0.3-0.1,0.5L223.2,170C223.3,169.8,223.3,169.7,223.3,169.5z"/>
					</g>
					<path class="st67" d="M182.3,236.4c-1.1,2.7-10.3,0.2-20.4-5.7l-4.6-2.7c-9.4-5.5-16.4-11.9-16.4-15c0.1,29.5,0.2,59,0.3,88.6
						l0,9.9c0,0,6.9,4.1,16.4,9.5l4.6,2.7c10.1,5.9,19.2,11.2,20.4,11.8C182.6,335.5,182.3,236.4,182.3,236.4z"/>
					<g>
						<path class="st64" d="M182.1,236.8c-7.6,8.5-15.1,16.9-22.7,25.4c0.1-0.1,0.1-0.2,0.2-0.3l22.8-25.5
							C182.2,236.5,182.2,236.7,182.1,236.8z"/>
					</g>
					<path class="st68" d="M206.9,155.7l-4.6-2.7c-9.4-5.5-18-8.6-20-7.4c-5.9,3.4-11.8,6.8-17.7,10.2c-6.1,3.5-12.3,7.1-18.4,10.6
						c0.5-0.3,7.9,3.5,17.3,9l4.6,2.7c10.1,5.9,18.8,11.5,19.3,12.5l35.8-20.7C224.3,168,217.1,161.6,206.9,155.7z"/>
					<g>
						<path class="st69" d="M223.2,170l0.4,141.9l20.3-11.7l0.1,28.2c0,0.2-0.1,0.4-0.3,0.5l-82.8,47.8l-0.1-28.6l21.8-12.6
							l-0.3-99.1l-22.8,25.5l-8.5-18.6c10.8-12.3,20.8-22.3,36.4-52.7L223.2,170z"/>
					</g>
					<path class="st66" d="M151,243.3c-1.5,0.2-10.9-4.4-21-10.3l0,0l-4.6-2.7c-8.8-5.1-15.3-9.5-15.8-10.7c0.9,1.9,1.7,3.8,2.6,5.7
						l0.9,2c1.8,3.9,3.5,7.7,5.3,11.6c1.3,2.8,8.3,8.3,17.1,13.5l4.6,2.7c10.1,5.9,18.8,8.9,19.4,6.8
						C159.5,261.9,151,243.3,151,243.3z"/>
					<path class="st70" d="M168.1,178.2l-4.6-2.7c-9.6-5.6-17.1-9.4-17.4-8.9c-1.4,2.7-5.5,10.8-10.7,19.4c-0.2,0.4-2.3,3.7-3.9,6.1
						c-0.6,0.8-1.3,1.9-1.8,2.7c0,0,0,0,0,0c-0.4,0.8-1.3,1.8-1.8,2.6c-0.5,0.7-1.3,1.7-1.8,2.4c-1,1.4-2.4,3.1-3.4,4.5
						c-1.4,1.7-2.7,3.4-3.3,4.1c-1,1.2-2.3,2.7-3.3,3.8c-2.2,2.5-4.3,4.9-6.5,7.4c-0.6,0.7,6.2,5.4,15.8,11l4.6,2.7
						c10.1,5.9,19.5,10.5,21,10.3c10.8-12.3,20.8-22.3,36.4-52.7C186.9,189.6,178.2,184,168.1,178.2z"/>
				</g>
				<g>
					
						<ellipse transform="matrix(7.200857e-02 -0.9974 0.9974 7.200857e-02 11.1862 336.6559)" class="st71" cx="186.5" cy="162.3" rx="2.6" ry="4.6"/>
					<path class="st66" d="M186.6,162.6L186.6,162.6c-0.6,0-1.1-0.5-1.1-1.1v-23.4c0-0.6,0.5-1.1,1.1-1.1l0,0c0.6,0,1.1,0.5,1.1,1.1
						v23.4C187.7,162.1,187.2,162.6,186.6,162.6z"/>
				</g>
			</g>
			<g>
				<g class="st57">
					<g>
						<path class="st64" d="M182.7,287.6c1.6-1,3.3-1.9,4.9-2.9c0.7-0.4,1.6-0.9,2.3-1.3c0.7-0.4,1.5-0.9,2.2-1.3
							c3.6-2.1,7.2-4.2,10.8-6.3c2.1-1.2,10.6,1.9,20,7.4L202.8,295C193.3,289.5,184.8,286.4,182.7,287.6z"/>
					</g>
					<g>
						<path class="st64" d="M244,299.7c0,9.7,0.1,19.4,0.1,29.1c0,0,0,0-0.1-0.1l-0.1-28.6C244,300,244,299.8,244,299.7z"/>
					</g>
					<g>
						<polygon class="st72" points="223,283.2 202.8,295 207.3,297.6 227.6,285.9 						"/>
						<path class="st72" d="M227.6,285.9l-21.8,10.8c10.1,5.9,19.2,13.4,18.1,15.4c0,0,20.3-11.7,20.3-11.7
							C245.3,298.4,237.7,291.8,227.6,285.9z"/>
					</g>
					<g>
						<path class="st73" d="M119.5,335.6c0,2,0,4,0,6c0,2.9,0,5.9,0,8.8l0,2.8c0,2.4,7,8.3,16.4,13.7l-0.1-33.3
							c-9.4-5.5-16.4-9.5-16.4-9.5C119.5,328,119.5,331.8,119.5,335.6z"/>
						<path class="st73" d="M160.8,348.1c-1.1-0.7-10.3-6-20.4-11.8l-4.6-2.7l0.1,33.3l4.6,2.7c10.1,5.9,19.2,9,20.4,7.1
							C160.8,376.7,160.8,348.1,160.8,348.1z"/>
					</g>
					<path class="st72" d="M162.2,323.7l-4.6-2.7c-9.4-5.5-16.4-9.5-16.4-9.5c-5.5,3.2-11,6.3-16.4,9.5c-1.8,1-3.6,2.1-5.4,3.1
						c0,0,6.9,4.1,16.4,9.5l4.6,2.7c10.1,5.9,19.2,11.2,20.4,11.8c0,0,21.8-12.6,21.8-12.6C181.4,334.9,172.3,329.6,162.2,323.7z"/>
					<g>
						<path class="st64" d="M223.3,169.5c0.1,25.5,0.1,51,0.2,76.5c0,16.9,0.1,33.8,0.1,50.7c0,4.9,0,9.8,0,14.8
							c0,0.2,0,0.3-0.1,0.5L223.2,170C223.3,169.8,223.3,169.7,223.3,169.5z"/>
					</g>
					<path class="st74" d="M182.3,236.4c-1.1,2.7-10.3,0.2-20.4-5.7l-4.6-2.7c-9.4-5.5-16.4-11.9-16.4-15c0.1,29.5,0.2,59,0.3,88.6
						l0,9.9c0,0,6.9,4.1,16.4,9.5l4.6,2.7c10.1,5.9,19.2,11.2,20.4,11.8C182.6,335.5,182.3,236.4,182.3,236.4z"/>
					<path class="st72" d="M181.9,235c0,0,4.9,63.1-14.5,57.7c-30.7-8.6-25.9-37.1-25.9-37.1L181.9,235z"/>
					<g>
						<path class="st64" d="M182.1,236.8c-7.6,8.5-15.1,16.9-22.7,25.4c0.1-0.1,0.1-0.2,0.2-0.3l22.8-25.5
							C182.2,236.5,182.2,236.7,182.1,236.8z"/>
					</g>
					<path class="st75" d="M206.9,155.7l-4.6-2.7c-9.4-5.5-18-8.6-20-7.4c-5.9,3.4-11.8,6.8-17.7,10.2c-6.1,3.5-12.3,7.1-18.4,10.6
						c0.5-0.3,7.9,3.5,17.3,9l4.6,2.7c10.1,5.9,18.8,11.5,19.3,12.5l35.8-20.7C224.3,168,217.1,161.6,206.9,155.7z"/>
					<g>
						<path class="st76" d="M223.2,170l0.4,141.9l20.3-11.7l0.1,28.3c0,0.1-0.1,0.3-0.2,0.3l-82.9,47.9l-0.1-28.6l21.8-12.6
							l-0.3-99.1l-22.8,25.5l-8.5-18.6c10.8-12.3,20.8-22.3,36.4-52.7L223.2,170z"/>
						<g>
							<g class="st57">
								<defs>
									<path id="SVGID_41_" class="st57" d="M223.2,169.2c0.1,44.9,0.3,92.2,0.4,141.9c8.8-5.1,15.6-9,20.3-11.7
										c0,8.7,0.1,19.8,0.1,28.6c-27,15.6-56.1,32.4-83.1,48c0-8.7-0.1-19.8-0.1-28.6c5.2-3,12.5-7.2,21.8-12.6
										c-0.1-33.4-0.2-64.4-0.3-99.1c-10.2,11.4-17.5,19.6-22.8,25.5c-2.5-5.5-5.9-12.9-8.5-18.6c10.8-12.3,20.8-22.3,36.4-52.7
										C199.4,183,212.3,175.5,223.2,169.2z"/>
								</defs>
								<clipPath id="SVGID_42_">
									<use xlink:href="#SVGID_41_"  style="overflow:visible;"/>
								</clipPath>
								<g class="st77">
									<path class="st78" d="M255.9,209.8c-0.5,0.6-0.9,1.3-1.1,2.1l-16.2,72.3c-0.3,1.5,0.3,2.6,1.5,2.3c0.6-0.1,1.2-0.6,1.7-1.2
										c0.5-0.6,0.9-1.3,1.1-2.1l16.2-72.3c0.3-1.5-0.3-2.5-1.5-2.3C257,208.8,256.4,209.2,255.9,209.8"/>
									<path class="st79" d="M254.6,159.3c-0.5,0.6-0.9,1.4-1.1,2.1c-0.4,1.6-0.9,2.7-1.5,3.8c-0.6,1-1.3,2-2.2,3.1
										c0,0.1-0.1,0.1-0.1,0.2c-0.4,0.5-0.8,1-1.3,1.5c-1.1,1.3-2.3,2.8-3.4,4.7c-1.1,1.9-2,4.1-2.6,6.6c-0.6,2.5-0.6,4.5-0.2,6
										c0.3,1.5,0.9,2.6,1.5,3.5c0.2,0.4,0.5,0.7,0.7,1.1c0.5,0.8,0.9,1.5,1.1,2.4c0.2,0.9,0.2,1.8-0.2,3.5
										c-0.4,1.6-0.9,2.7-1.5,3.8c-0.6,1.1-1.4,2.1-2.4,3.2c-0.4,0.5-0.8,1-1.3,1.5c-1.1,1.3-2.3,2.8-3.4,4.7s-2,4.1-2.6,6.6
										c-0.6,2.5-0.6,4.5-0.2,6c0.3,1.5,1,2.6,1.5,3.5c0.2,0.4,0.5,0.7,0.7,1c0.5,0.8,0.9,1.5,1.1,2.4c0.2,0.9,0.2,1.8-0.2,3.5
										c-0.3,1.5,0.3,2.5,1.5,2.3c0.6-0.1,1.2-0.6,1.7-1.2c0.5-0.6,0.9-1.3,1.1-2.1c0.6-2.5,0.6-4.5,0.2-6c-0.3-1.5-1-2.6-1.5-3.5
										c-0.2-0.4-0.5-0.7-0.7-1c-0.5-0.8-0.9-1.5-1.1-2.4c-0.2-0.9-0.2-1.8,0.2-3.5c0.4-1.6,0.9-2.7,1.5-3.8
										c0.6-1,1.4-2.1,2.4-3.2c0.4-0.5,0.8-1,1.3-1.5c1.1-1.3,2.3-2.8,3.4-4.7c1.1-1.9,2-4.1,2.6-6.6c0.6-2.5,0.6-4.5,0.2-6
										c-0.3-1.5-0.9-2.6-1.5-3.5c-0.2-0.4-0.5-0.7-0.7-1.1c-0.5-0.8-0.9-1.5-1.1-2.4c-0.2-0.9-0.2-1.8,0.2-3.5
										c0.4-1.6,0.9-2.7,1.5-3.8c0.6-1,1.3-2,2.2-3.1c0-0.1,0.1-0.1,0.1-0.2c0.4-0.5,0.8-1,1.3-1.5c1.1-1.3,2.3-2.8,3.4-4.7
										c1.1-1.9,2-4.1,2.6-6.6c0.3-1.5-0.3-2.5-1.5-2.3C255.7,158.3,255.1,158.7,254.6,159.3"/>
									<path class="st80" d="M142.1,241.2c-0.5,0.6-0.9,1.3-1.1,2.1c-0.1,0.6-0.3,0.9-0.5,1.2c-0.2,0.3-0.4,0.6-0.8,1.1
										c0,0-0.1,0.1-0.1,0.1c-0.2,0.2-0.4,0.5-0.7,0.8c-0.6,0.7-1.3,1.5-1.9,2.7c-0.7,1.1-1.2,2.5-1.6,4c-0.3,1.4-0.3,2.7-0.1,3.6
										c0.2,0.9,0.6,1.5,0.9,2c0.1,0.2,0.2,0.4,0.3,0.5c0.2,0.4,0.4,0.7,0.4,0.9c0.1,0.3,0.1,0.5-0.1,1.1
										c-0.1,0.6-0.3,0.9-0.5,1.2c-0.2,0.3-0.4,0.7-0.8,1.1c0,0-0.1,0.1-0.1,0.1c-0.2,0.2-0.4,0.5-0.6,0.8
										c-0.6,0.7-1.3,1.5-1.9,2.7c-0.7,1.1-1.3,2.6-1.6,4c-0.3,1.5-0.3,2.7-0.1,3.6c0.2,0.9,0.6,1.5,0.9,2
										c0.1,0.2,0.2,0.4,0.3,0.5c0.2,0.4,0.4,0.7,0.4,0.9c0.1,0.3,0.1,0.5-0.1,1.1c-0.3,1.5,0.3,2.5,1.5,2.3
										c0.6-0.1,1.2-0.6,1.7-1.2c0.5-0.6,0.9-1.3,1.1-2.1c0.3-1.5,0.3-2.7,0.1-3.7c-0.2-0.9-0.6-1.5-0.9-2
										c-0.1-0.2-0.2-0.4-0.3-0.5c-0.2-0.4-0.4-0.7-0.4-0.9c-0.1-0.3-0.1-0.5,0.1-1.1c0.1-0.6,0.3-0.9,0.5-1.2
										c0.2-0.3,0.5-0.7,0.9-1.3c0.2-0.2,0.4-0.5,0.6-0.8c0.6-0.7,1.3-1.5,1.9-2.7c0.7-1.1,1.3-2.6,1.6-4l0,0
										c0.3-1.4,0.3-2.7,0.1-3.6c-0.2-0.9-0.6-1.5-0.9-2c-0.1-0.2-0.2-0.4-0.4-0.5c-0.2-0.4-0.4-0.7-0.4-0.9
										c-0.1-0.3-0.1-0.5,0.1-1.1c0.1-0.6,0.3-0.9,0.4-1.2c0.2-0.3,0.5-0.7,0.9-1.3c0.2-0.2,0.4-0.5,0.7-0.8
										c0.6-0.7,1.3-1.5,1.9-2.7c0.7-1.1,1.3-2.5,1.6-4c0.3-1.5-0.3-2.5-1.5-2.3C143.2,240.2,142.6,240.6,142.1,241.2"/>
									<path class="st81" d="M263,186.3L263,186.3L263,186.3L263,186.3 M264.6,185.9l12.5-22.6l3.2,18.8L264.6,185.9 M276.7,161.2
										L276.7,161.2L276.7,161.2L276.7,161.2 M276.1,157.9c-0.3,0.4-0.6,0.8-0.9,1.3l0,0l-15,27.2c-0.5,0.9-0.8,1.9-0.9,2.8
										c-0.1,0.8,0.1,1.5,0.4,2.1c0.4,0.6,1.1,0.9,2,0.7l18.8-4.6l0.6-2.8l0.3-1.5l-0.3,1.5l-0.6,2.8c0.9-0.2,1.8-0.9,2.6-1.8
										c0,0,0,0,0,0c0.6-0.7,1.1-1.6,1.4-2.5c0.3-0.9,0.4-1.8,0.3-2.6l-3.9-22.6l0,0c-0.1-0.4-0.2-0.7-0.4-0.9
										c-0.4-0.7-1.2-0.9-2-0.7S276.9,156.9,276.1,157.9"/>
								</g>
							</g>
						</g>
						<path class="st60" d="M223.2,170c0.1,44.9,0.3,92.2,0.4,141.9c8.8-5.1,15.6-9,20.3-11.7c0,8.7,0.1,19.8,0.1,28.6
							c-27,15.6-56.1,32.4-83.1,48c0-8.7-0.1-19.8-0.1-28.6c5.2-3,12.5-7.2,21.8-12.6c-0.1-33.4-0.2-64.4-0.3-99.1
							c-10.2,11.4-17.5,19.6-22.8,25.5c-2.5-5.5-5.9-12.9-8.5-18.6c10.8-12.3,20.8-22.3,36.4-52.7
							C199.4,183.7,212.3,176.2,223.2,170z"/>
					</g>
					<path class="st74" d="M151,243.3c-1.5,0.2-10.9-4.4-21-10.3l0,0l-4.6-2.7c-8.8-5.1-15.3-9.5-15.8-10.7c0.9,1.9,1.7,3.8,2.6,5.7
						l0.9,2c1.8,3.9,3.5,7.7,5.3,11.6c1.3,2.8,8.3,8.3,17.1,13.5l4.6,2.7c10.1,5.9,18.8,8.9,19.4,6.8
						C159.5,261.9,151,243.3,151,243.3z"/>
					<path class="st73" d="M168.1,178.2l-4.6-2.7c-9.6-5.6-17.1-9.4-17.4-8.9c-1.4,2.7-5.5,10.8-10.7,19.4c-0.2,0.4-2.3,3.7-3.9,6.1
						c-0.6,0.8-1.3,1.9-1.8,2.7c0,0,0,0,0,0c-0.4,0.8-1.3,1.8-1.8,2.6c-0.5,0.7-1.3,1.7-1.8,2.4c-1,1.4-2.4,3.1-3.4,4.5
						c-1.4,1.7-2.7,3.4-3.3,4.1c-1,1.2-2.3,2.7-3.3,3.8c-2.2,2.5-4.3,4.9-6.5,7.4c-0.6,0.7,6.2,5.4,15.8,11l4.6,2.7
						c10.1,5.9,19.5,10.5,21,10.3c10.8-12.3,20.8-22.3,36.4-52.7C186.9,189.6,178.2,184,168.1,178.2z"/>
				</g>
				<ellipse class="st82" cx="186.2" cy="162.7" rx="11.2" ry="6.5"/>
				<g>
					
						<ellipse transform="matrix(7.200857e-02 -0.9974 0.9974 7.200857e-02 11.1862 336.6559)" class="st66" cx="186.5" cy="162.3" rx="2.6" ry="4.6"/>
					<path class="st66" d="M186.6,162.6L186.6,162.6c-0.6,0-1.1-0.5-1.1-1.1v-23.4c0-0.6,0.5-1.1,1.1-1.1l0,0c0.6,0,1.1,0.5,1.1,1.1
						v23.4C187.7,162.1,187.2,162.6,186.6,162.6z"/>
				</g>
			</g>
		</g>
		<g>
			<g>
				<path class="st83" d="M200.3,122.5l-0.3-0.2c-0.8-0.5-1.7-0.6-2.6-0.4v-3c0-1.8-1.5-3.3-3.3-3.3s-3.3,1.5-3.3,3.3l-0.1,6.8
					c0,1.3-1.1,2.3-2.3,2.3h-3.1c-1.3,0-2.3-1.1-2.3-2.3c0,0,0.1-4.3,0.1-4.5v-3.7c0-2.1-1.7-3.9-3.9-3.9c-2.1,0-3.9,1.7-3.9,3.9
					v3.4c-0.9-0.5-2.1-0.6-3.1-0.1v0c-1.6,0.8-2.3,2.8-1.5,4.4l5.6,11.7c0.2,0.5,0.6,0.9,1,1.2c1.7,2.2,4.3,3.6,7.2,3.6h3.9
					c4.3,0,7.9-3,8.9-7.1l4.3-7.4C202.6,125.7,202,123.5,200.3,122.5z"/>
				<path class="st83" d="M187.5,127.4h-1.2c-1.5,0-2.7-1.2-2.7-2.7v-0.7c0-1.5,1.2-2.7,2.7-2.7h1.2c1.5,0,2.7,1.2,2.7,2.7v0.7
					C190.2,126.2,189,127.4,187.5,127.4z"/>
				<path class="st83" d="M187.5,120.2h-1.3c-1.5,0-2.7-1.2-2.7-2.7v-2.1c0-1.5,1.2-2.7,2.7-2.7h1.3c1.5,0,2.7,1.2,2.7,2.7v2.1
					C190.2,119,189,120.2,187.5,120.2z"/>
				<path class="st83" d="M178.9,112.9L178.9,112.9c-1.8,0-3.3-1.5-3.3-3.3v-0.8c0-1.8,1.5-3.3,3.3-3.3h0c1.8,0,3.3,1.5,3.3,3.3v0.8
					C182.2,111.4,180.8,112.9,178.9,112.9z"/>
				<path class="st83" d="M171.4,120.4L171.4,120.4c-1.8,0.4-3.6-0.7-4-2.5l-0.2-0.8c-0.4-1.8,0.7-3.6,2.5-4l0,0
					c1.8-0.4,3.6,0.7,4,2.5l0.2,0.8C174.3,118.2,173.2,120,171.4,120.4z"/>
				<path class="st83" d="M194.9,115h-1.5c-1.4,0-2.5-1.1-2.5-2.5V112c0-1.4,1.1-2.5,2.5-2.5h1.5c1.4,0,2.5,1.1,2.5,2.5v0.5
					C197.4,113.9,196.3,115,194.9,115z"/>
				<path class="st83" d="M187.3,95.5L187.3,95.5c-2.2,0-4,1.8-4,4v7.5c0,2.2,1.8,4,4,4l0,0c2.2,0,4-1.8,4-4v-7.5
					C191.3,97.2,189.5,95.5,187.3,95.5z"/>
				<path class="st83" d="M172.7,111.5L172.7,111.5c0.9,0,1.7-0.8,1.7-1.7l0,0c0-0.9-0.8-1.7-1.7-1.7l0,0c-0.9,0-1.7,0.8-1.7,1.7
					l0,0C170.9,110.7,171.7,111.5,172.7,111.5z"/>
				<path class="st83" d="M200.9,121.1L200.9,121.1c-0.7,0-1.3-0.6-1.3-1.3v0c0-0.7,0.6-1.3,1.3-1.3h0c0.7,0,1.3,0.6,1.3,1.3v0
					C202.2,120.6,201.6,121.1,200.9,121.1z"/>
				<path class="st83" d="M203,109.9L203,109.9c2,0,3.6,1.6,3.6,3.6v0c0,2-1.6,3.6-3.6,3.6h0c-2,0-3.6-1.6-3.6-3.6v0
					C199.4,111.5,201,109.9,203,109.9z"/>
				<path class="st83" d="M196.8,105.2L196.8,105.2c-0.8,0-1.5-0.7-1.5-1.5l0,0c0-0.8,0.7-1.5,1.5-1.5l0,0c0.8,0,1.5,0.7,1.5,1.5
					l0,0C198.3,104.5,197.6,105.2,196.8,105.2z"/>
				<path class="st83" d="M175.9,101L175.9,101c2.1,0,3.9-1.7,3.9-3.9v0c0-2.1-1.7-3.9-3.9-3.9h0c-2.1,0-3.9,1.7-3.9,3.9v0
					C172,99.3,173.8,101,175.9,101z"/>
			</g>
			<g>
				<path class="st83" d="M200.3,122.5l-0.3-0.2c-0.8-0.5-1.7-0.6-2.6-0.4v-3c0-1.8-1.5-3.3-3.3-3.3s-3.3,1.5-3.3,3.3l-0.1,6.8
					c0,1.3-1.1,2.3-2.3,2.3h-3.1c-1.3,0-2.3-1.1-2.3-2.3c0,0,0.1-4.3,0.1-4.5v-3.7c0-2.1-1.7-3.9-3.9-3.9c-2.1,0-3.9,1.7-3.9,3.9
					v3.4c-0.9-0.5-2.1-0.6-3.1-0.1v0c-1.6,0.8-2.3,2.8-1.5,4.4l5.6,11.7c0.2,0.5,0.6,0.9,1,1.2c1.7,2.2,4.3,3.6,7.2,3.6h3.9
					c4.3,0,7.9-3,8.9-7.1l4.3-7.4C202.6,125.7,202,123.5,200.3,122.5z"/>
				<path class="st83" d="M200.3,122.5l-0.3-0.2c-0.8-0.5-1.7-0.6-2.6-0.4v-3c0-1.8-1.5-3.3-3.3-3.3s-3.3,1.5-3.3,3.3l-0.1,6.8
					c0,1.3-1.1,2.3-2.3,2.3h-3.1c-1.3,0-2.3-1.1-2.3-2.3c0,0,0.1-4.3,0.1-4.5v-3.7c0-2.1-1.7-3.9-3.9-3.9c-2.1,0-3.9,1.7-3.9,3.9
					v3.4c-0.9-0.5-2.1-0.6-3.1-0.1v0c-1.6,0.8-2.3,2.8-1.5,4.4l5.6,11.7c0.2,0.5,0.6,0.9,1,1.2c1.7,2.2,4.3,3.6,7.2,3.6h3.9
					c4.3,0,7.9-3,8.9-7.1l4.3-7.4C202.6,125.7,202,123.5,200.3,122.5z"/>
				<g class="st84">
					<path class="st85" d="M183.1,121.5c0-0.1,0-0.2,0-0.2v-3.7c0-0.2,0-0.4-0.1-0.6c-0.1,1.3-0.1,3.8-0.1,3.8
						C183,121.1,183,121.3,183.1,121.5z"/>
					<path class="st85" d="M197.4,129.8c-0.9,4-4.6,7.1-8.9,7.1h-3.9c-2.9,0-5.6-1.4-7.2-3.6c-0.4-0.3-0.8-0.7-1-1.2l-5-10.5
						c-0.9,1-1.2,2.4-0.6,3.7l5.6,11.7c0.2,0.5,0.6,0.9,1,1.2c1.7,2.2,4.3,3.6,7.2,3.6h3.9c4.3,0,7.9-3,8.9-7.1l4.3-7.4
						c0.8-1.4,0.5-3-0.5-4.2L197.4,129.8z"/>
				</g>
				<circle class="st86" cx="184.2" cy="129.6" r="0.4"/>
				<g class="st87">
					<circle class="st86" cx="177.8" cy="129.3" r="0.8"/>
					<circle class="st86" cx="194.2" cy="118.3" r="0.8"/>
					<circle class="st86" cx="195.8" cy="119.9" r="0.8"/>
					<circle class="st86" cx="174.7" cy="128.1" r="0.8"/>
					<circle class="st86" cx="179" cy="118.9" r="2.5"/>
					<circle class="st86" cx="180.9" cy="123.6" r="0.6"/>
					<circle class="st86" cx="177.3" cy="124.4" r="0.3"/>
					<circle class="st86" cx="185.8" cy="133.4" r="1.7"/>
					<circle class="st86" cx="180.8" cy="133.5" r="0.5"/>
					<circle class="st86" cx="177.9" cy="134.6" r="1.4"/>
					<circle class="st86" cx="192.7" cy="130.6" r="0.5"/>
					<circle class="st86" cx="189.1" cy="131.3" r="1.4"/>
					<circle class="st86" cx="179.8" cy="127.3" r="1"/>
					<circle class="st86" cx="196.6" cy="126.4" r="2"/>
					<circle class="st86" cx="196.6" cy="126.4" r="2"/>
					<circle class="st86" cx="193.3" cy="123" r="0.5"/>
					<circle class="st86" cx="175.1" cy="124.3" r="0.4"/>
					<circle class="st86" cx="182.5" cy="137.4" r="1.5"/>
					<circle class="st86" cx="190.8" cy="136.6" r="0.5"/>
					<circle class="st86" cx="193.4" cy="133.2" r="1.1"/>
				</g>
				<path class="st88" d="M187.5,127.4h-1.2c-1.5,0-2.7-1.2-2.7-2.7v-0.7c0-1.5,1.2-2.7,2.7-2.7h1.2c1.5,0,2.7,1.2,2.7,2.7v0.7
					C190.2,126.2,189,127.4,187.5,127.4z"/>
				<path class="st83" d="M187.5,120.2h-1.3c-1.5,0-2.7-1.2-2.7-2.7v-2.1c0-1.5,1.2-2.7,2.7-2.7h1.3c1.5,0,2.7,1.2,2.7,2.7v2.1
					C190.2,119,189,120.2,187.5,120.2z"/>
				<path class="st89" d="M178.9,112.9L178.9,112.9c-1.8,0-3.3-1.5-3.3-3.3v-0.8c0-1.8,1.5-3.3,3.3-3.3h0c1.8,0,3.3,1.5,3.3,3.3v0.8
					C182.2,111.4,180.8,112.9,178.9,112.9z"/>
				<path class="st83" d="M171.4,120.4L171.4,120.4c-1.8,0.4-3.6-0.7-4-2.5l-0.2-0.8c-0.4-1.8,0.7-3.6,2.5-4l0,0
					c1.8-0.4,3.6,0.7,4,2.5l0.2,0.8C174.3,118.2,173.2,120,171.4,120.4z"/>
				<path class="st89" d="M194.9,115h-1.5c-1.4,0-2.5-1.1-2.5-2.5V112c0-1.4,1.1-2.5,2.5-2.5h1.5c1.4,0,2.5,1.1,2.5,2.5v0.5
					C197.4,113.9,196.3,115,194.9,115z"/>
				<path class="st83" d="M187.3,95.5L187.3,95.5c-2.2,0-4,1.8-4,4v7.5c0,2.2,1.8,4,4,4l0,0c2.2,0,4-1.8,4-4v-7.5
					C191.3,97.2,189.5,95.5,187.3,95.5z"/>
				<path class="st83" d="M172.7,111.5L172.7,111.5c0.9,0,1.7-0.8,1.7-1.7l0,0c0-0.9-0.8-1.7-1.7-1.7l0,0c-0.9,0-1.7,0.8-1.7,1.7
					l0,0C170.9,110.7,171.7,111.5,172.7,111.5z"/>
				<path class="st83" d="M200.9,121.1L200.9,121.1c-0.7,0-1.3-0.6-1.3-1.3v0c0-0.7,0.6-1.3,1.3-1.3h0c0.7,0,1.3,0.6,1.3,1.3v0
					C202.2,120.6,201.6,121.1,200.9,121.1z"/>
				<path class="st88" d="M203,109.9L203,109.9c2,0,3.6,1.6,3.6,3.6v0c0,2-1.6,3.6-3.6,3.6h0c-2,0-3.6-1.6-3.6-3.6v0
					C199.4,111.5,201,109.9,203,109.9z"/>
				<path class="st83" d="M196.8,105.2L196.8,105.2c-0.8,0-1.5-0.7-1.5-1.5l0,0c0-0.8,0.7-1.5,1.5-1.5l0,0c0.8,0,1.5,0.7,1.5,1.5
					l0,0C198.3,104.5,197.6,105.2,196.8,105.2z"/>
				<path class="st88" d="M175.9,101L175.9,101c2.1,0,3.9-1.7,3.9-3.9v0c0-2.1-1.7-3.9-3.9-3.9h0c-2.1,0-3.9,1.7-3.9,3.9v0
					C172,99.3,173.8,101,175.9,101z"/>
			</g>
		</g>
		<circle class="st86" cx="185.8" cy="133.4" r="1.7"/>
		<circle class="st86" cx="174.7" cy="128.1" r="0.8"/>
		<circle class="st86" cx="179" cy="118.9" r="2.5"/>
		<circle class="st86" cx="179.8" cy="127.3" r="1"/>
		<circle class="st86" cx="196.6" cy="126.4" r="2"/>
		<circle class="st86" cx="185.5" cy="98.9" r="0.6"/>
		<circle class="st86" cx="187" cy="103.8" r="1.7"/>
		<circle class="st86" cx="177.6" cy="108.4" r="1"/>
		<circle class="st86" cx="170.8" cy="115.6" r="0.7"/>
		<circle class="st86" cx="176.8" cy="95.1" r="0.5"/>
		<circle class="st86" cx="197.2" cy="103.2" r="0.3"/>
		<circle class="st86" cx="195.2" cy="111.9" r="1"/>
		<circle class="st86" cx="192.7" cy="112.5" r="0.3"/>
		<circle class="st86" cx="203.8" cy="112.2" r="0.7"/>
		<circle class="st86" cx="201.6" cy="114.3" r="0.4"/>
		<circle class="st86" cx="204.5" cy="115.5" r="0.6"/>
		<circle class="st86" cx="187.6" cy="114.8" r="0.6"/>
		<circle class="st86" cx="188.8" cy="117.4" r="0.4"/>
		<circle class="st86" cx="185.3" cy="117" r="0.8"/>
		<circle class="st86" cx="201.1" cy="119.7" r="0.2"/>
		<circle class="st86" cx="172.9" cy="109.4" r="0.3"/>
		<circle class="st86" cx="180.1" cy="110.8" r="0.8"/>
		<path class="st81" d="M189,102.3L189,102.3c-0.5,0-0.9-0.4-0.9-0.9v-2.5c0-0.5,0.4-0.9,0.9-0.9l0,0c0.5,0,0.9,0.4,0.9,0.9v2.5
			C189.9,101.9,189.5,102.3,189,102.3z"/>
		<path class="st81" d="M173.6,98.4L173.6,98.4c-0.3,0-0.5-0.2-0.5-0.5v-1.2c0-0.3,0.2-0.5,0.5-0.5l0,0c0.3,0,0.5,0.2,0.5,0.5v1.2
			C174.1,98.2,173.9,98.4,173.6,98.4z"/>
		<path class="st81" d="M180.8,109.8L180.8,109.8c0.3,0,0.5-0.2,0.5-0.5v-1.1c0-0.3-0.2-0.5-0.5-0.5l0,0c-0.3,0-0.5,0.2-0.5,0.5v1.1
			C180.3,109.5,180.5,109.8,180.8,109.8z"/>
		<path class="st81" d="M168.9,117.9L168.9,117.9c-0.3,0-0.6-0.3-0.6-0.6v-1.4c0-0.3,0.3-0.6,0.6-0.6l0,0c0.3,0,0.6,0.3,0.6,0.6v1.4
			C169.4,117.6,169.2,117.9,168.9,117.9z"/>
		<path class="st81" d="M205.3,114.2L205.3,114.2c0.3,0,0.5-0.2,0.5-0.5V113c0-0.3-0.2-0.5-0.5-0.5l0,0c-0.3,0-0.5,0.2-0.5,0.5v0.7
			C204.8,113.9,205,114.2,205.3,114.2z"/>
		<path class="st81" d="M195.6,111h-0.9c-0.2,0-0.4-0.2-0.4-0.4l0,0c0-0.2,0.2-0.4,0.4-0.4h0.9c0.2,0,0.4,0.2,0.4,0.4l0,0
			C196,110.8,195.8,111,195.6,111z"/>
		<path class="st81" d="M188.9,116.8L188.9,116.8c0.2,0,0.4-0.2,0.4-0.4v-0.9c0-0.2-0.2-0.4-0.4-0.4l0,0c-0.2,0-0.4,0.2-0.4,0.4v0.9
			C188.6,116.7,188.7,116.8,188.9,116.8z"/>
		<path class="st81" d="M195.4,121.4L195.4,121.4c0.5,0,1-0.4,1-1v-1.8c0-0.5-0.4-1-1-1l0,0c-0.5,0-1,0.4-1,1v1.8
			C194.5,121,194.9,121.4,195.4,121.4z"/>
		<path class="st81" d="M188,125.2L188,125.2c0.3,0,0.6-0.3,0.6-0.6v-0.9c0-0.3-0.3-0.6-0.6-0.6l0,0c-0.3,0-0.6,0.3-0.6,0.6v0.9
			C187.5,124.9,187.7,125.2,188,125.2z"/>
	</g>
	<g>
		<g>
			<g class="st57">
				<g>
					<path class="st43" d="M234.9,338.9l0.1,22.7c0,0.1,0,0.2-0.1,0.2l-19.7,11.4c-0.1,0.1-0.3,0-0.3-0.2l-0.1-22.7
						c0-0.1,0-0.2,0.1-0.2l19.7-11.4C234.7,338.6,234.9,338.7,234.9,338.9z"/>
				</g>
				<g>
					<path class="st41" d="M214.5,373.2l-18.9-11c-0.1,0-0.1-0.1-0.1-0.2l-0.1-22.7c0-0.2,0.2-0.3,0.3-0.2l18.9,11
						c0.1,0,0.1,0.1,0.1,0.2l0.1,22.7C214.8,373.1,214.6,373.2,214.5,373.2z"/>
				</g>
				<g>
					<path class="st63" d="M214.6,350.1l-18.9-11c-0.1-0.1-0.1-0.3,0-0.4l19.7-11.4c0.1,0,0.2,0,0.2,0l18.9,11
						c0.1,0.1,0.1,0.3,0,0.4l-19.7,11.4C214.8,350.2,214.7,350.2,214.6,350.1z"/>
				</g>
			</g>
		</g>
		<g>
			<g class="st57">
				<g>
					<path class="st60" d="M234.9,338.9l0.1,22.7c0,0.1,0,0.2-0.1,0.2l-19.7,11.4c-0.1,0.1-0.3,0-0.3-0.2l-0.1-22.7
						c0-0.1,0-0.2,0.1-0.2l19.7-11.4C234.7,338.6,234.9,338.7,234.9,338.9z"/>
				</g>
				<g>
					<path class="st60" d="M214.5,373.2l-18.9-11c-0.1,0-0.1-0.1-0.1-0.2l-0.1-22.7c0-0.2,0.2-0.3,0.3-0.2l18.9,11
						c0.1,0,0.1,0.1,0.1,0.2l0.1,22.7C214.8,373.1,214.6,373.2,214.5,373.2z"/>
				</g>
				<g>
					<path class="st60" d="M214.6,350.1l-18.9-11c-0.1-0.1-0.1-0.3,0-0.4l19.7-11.4c0.1,0,0.2,0,0.2,0l18.9,11
						c0.1,0.1,0.1,0.3,0,0.4l-19.7,11.4C214.8,350.2,214.7,350.2,214.6,350.1z"/>
				</g>
			</g>
		</g>
		<polygon class="st61" points="206,345.1 203.9,343.9 224.1,332.3 226.2,333.5 		"/>
		<polygon class="st61" points="206,345.1 203.9,343.9 224.1,332.3 226.2,333.5 		"/>
		<polygon class="st62" points="206,368.2 204,367 204,344 206,345.2 		"/>
		<polygon class="st61" points="224.1,344.8 226.2,343.6 206.8,332.3 204.7,333.6 		"/>
		<polygon class="st62" points="224.1,367.9 226.2,366.7 226.2,343.6 224.1,344.8 		"/>
		<g>
			<g>
				<g class="st57">
					<path class="st61" d="M224.1,331.6l-1.7-1c0.2,0.1,0.4,0.4,0.4,0.7c0,0.3-0.1,0.6-0.3,0.9c-0.7,1.1-2.3,2.2-3.9,3.1
						c-1.7,1-3.3,1.7-3.7,1.9l1.7,1c0.4-0.2,2.1-0.9,3.7-1.9c1.6-0.9,3.2-2.1,3.9-3.1c0.2-0.3,0.3-0.6,0.3-0.9
						C224.5,332,224.4,331.7,224.1,331.6z"/>
					<g>
						<polygon class="st61" points="216.3,338.6 214.5,337.5 214.6,337.4 216.3,338.4 						"/>
					</g>
					<g>
						<path class="st61" d="M222.9,331.4c1.1-0.3,1.7,0,1.7,0.8c0,0.3-0.1,0.7-0.4,1.1c-0.7,1.1-2.4,2.3-4,3.3
							c-1.9,1.1-3.7,1.9-3.9,1.9l-0.1,0l0.1-0.1c0.7-2.1,2-3.7,3-4.6c0.7-0.7,1.6-1.4,2.3-1.8C222.1,331.7,222.5,331.5,222.9,331.4z
							 M224.2,333.2c0.2-0.3,0.3-0.6,0.3-0.9c0-0.8-0.6-1-1.6-0.7c-0.5,0.1-0.9,0.3-1.4,0.6c-2.4,1.4-4.3,4.2-5,6.1
							c0.4-0.2,2.1-0.9,3.7-1.9C221.9,335.4,223.5,334.3,224.2,333.2"/>
					</g>
					<path class="st61" d="M222.5,330.4c-0.3-0.2-0.8-0.2-1.3,0c-0.4,0.1-0.8,0.3-1.3,0.6c-0.8,0.4-1.6,1.1-2.3,1.8
						c-1,1-2.3,2.5-3,4.6l1.7,1c0.7-2.1,2-3.7,3-4.6c0.7-0.7,1.6-1.4,2.3-1.8c0.4-0.3,0.9-0.4,1.3-0.6c0.6-0.2,1-0.2,1.3,0
						L222.5,330.4z"/>
				</g>
			</g>
			<g>
				<g class="st57">
					<path class="st61" d="M215.6,337.7l-1.7-1c0.3,0.2,0.6,0.4,0.7,0.7c-0.4,0.3-2.1,1.5-3.7,2.4c-1.6,0.9-3.2,1.7-3.9,1.4
						c0,0,0,0-0.1,0l1.7,1c0,0,0,0,0.1,0c0.7,0.3,2.3-0.5,3.9-1.4c1.7-1,3.3-2.1,3.7-2.4C216.2,338.1,215.9,337.9,215.6,337.7z"/>
					<g>
						<path class="st61" d="M216.6,338.3L216.6,338.3l-0.1,0.2c-0.1,0.1-2,1.4-3.9,2.5c-1.6,0.9-3.3,1.7-4.1,1.4
							c-0.2-0.1-0.4-0.3-0.4-0.7c0-0.9,0.6-1.9,1.7-2.8c0.4-0.3,0.8-0.6,1.3-0.9c0.8-0.4,1.6-0.8,2.3-0.9
							C214.5,337,215.8,337.1,216.6,338.3z M212.6,340.8c1.7-1,3.3-2.1,3.7-2.4c-0.7-1.1-2.6-1.7-5-0.3c-0.4,0.3-0.9,0.6-1.4,1
							c-1,0.9-1.6,1.8-1.6,2.6c0,0.3,0.1,0.5,0.3,0.6C209.4,342.5,211,341.7,212.6,340.8"/>
					</g>
					<g>
						<path class="st61" d="M208.5,342.4l-1.7-1c-0.2-0.1-0.3-0.3-0.3-0.6c0-0.9,0.6-1.9,1.7-2.8c0.4-0.3,0.8-0.6,1.3-0.9
							c0.8-0.4,1.6-0.8,2.3-0.9c0.7-0.1,1.5-0.1,2.2,0.3l1.7,1c-0.7-0.4-1.5-0.4-2.2-0.3c-0.7,0.1-1.6,0.4-2.3,0.9
							c-0.4,0.3-0.9,0.6-1.3,0.9c-1.1,0.9-1.7,2-1.7,2.8C208.2,342.1,208.3,342.3,208.5,342.4z"/>
					</g>
				</g>
			</g>
		</g>
	</g>
</g>
<g id="DESIGNED_BY_FREEPIK">
</g>
</svg>
