<?xml version="1.0" encoding="iso-8859-1"?>
<!-- Generator: Adobe Illustrator 19.0.0, SVG Export Plug-In . SVG Version: 6.00 Build 0)  -->
<svg version="1.1" id="Capa_1" xmlns="http://www.w3.org/2000/svg" xmlns:xlink="http://www.w3.org/1999/xlink" x="0px" y="0px"
	 viewBox="0 0 512 512" style="enable-background:new 0 0 512 512;" xml:space="preserve">
<circle style="fill:#48AEF9;" cx="256" cy="267.43" r="244.57"/>
<path style="fill:#EFEFEF;" d="M250.741,3.307C184.417,140.667,36.973,214.113,36.973,214.113H256h219.027
	c0,0-147.444-73.446-213.768-210.807C259.13-1.102,252.87-1.102,250.741,3.307z"/>
<path style="fill:#DDDDDD;" d="M252.195,3.307c0.525-1.729,1.45-2.77,2.46-3.143c-1.607,0.373-3.08,1.413-3.915,3.143
	C184.417,140.667,36.973,214.113,36.973,214.113h80.881C117.854,214.113,210.515,140.667,252.195,3.307z"/>
<path style="fill:#FAC149;" d="M311.672,365.077H198.725c-14.912,0-27-12.088-27-27s12.088-27,27-27h112.946
	c14.912,0,27,12.088,27,27C338.672,352.989,326.584,365.077,311.672,365.077z"/>
<path style="fill:#F8A748;" d="M252.482,338.077c0-14.912,12.088-27,27-27h-80.756c-14.912,0-27,12.088-27,27s12.088,27,27,27
	h80.756C264.57,365.077,252.482,352.989,252.482,338.077z"/>
<g>
	<path style="fill:#EFEFEF;" d="M202.949,324.077c-4.143,0-7.5-3.357-7.5-7.5v-45.774c0-4.143,3.357-7.5,7.5-7.5s7.5,3.357,7.5,7.5
		v45.774C210.449,320.719,207.092,324.077,202.949,324.077z"/>
	<path style="fill:#EFEFEF;" d="M307.449,324.077c-4.142,0-7.5-3.357-7.5-7.5v-45.774c0-4.143,3.358-7.5,7.5-7.5
		c4.143,0,7.5,3.357,7.5,7.5v45.774C314.949,320.719,311.592,324.077,307.449,324.077z"/>
</g>
<path style="fill:#647892;" d="M407.162,459.7c10.007-7.878,19.373-16.531,28.031-25.851V269.092h-28.031V459.7z"/>
<rect x="407.16" y="269.09" style="fill:#546A82;" width="28.03" height="41.985"/>
<path style="fill:#7D92A8;" d="M379.131,478.772c9.796-5.72,19.164-12.091,28.032-19.072V269.092h-28.032V478.772z"/>
<rect x="379.13" y="269.09" style="fill:#647892;" width="28.03" height="41.985"/>
<path style="fill:#7D92A8;" d="M69.915,426.116c8.577,10.049,17.954,19.391,28.032,27.934V269.092H69.915V426.116z"/>
<g>
	<rect x="69.915" y="269.09" style="fill:#647892;" width="28.03" height="41.985"/>
	<path style="fill:#647892;" d="M97.946,454.05c8.829,7.485,18.193,14.354,28.031,20.542v-205.5H97.946V454.05z"/>
</g>
<rect x="97.95" y="269.09" style="fill:#546A82;" width="28.03" height="41.985"/>
<path style="fill:#EFEFEF;" d="M144.404,485.109C177.862,502.297,215.797,512,256,512s78.138-9.703,111.596-26.891H144.404z"/>
<path style="fill:#DDDDDD;" d="M230.274,485.109h-85.87c26.072,13.393,54.862,22.24,85.325,25.494
	C221.776,504.331,222.142,490.996,230.274,485.109z"/>
<path style="fill:#FC5B6F;" d="M466.552,272.803H45.001c-4.433,0-8.027-3.594-8.027-8.027v-50.662h438.053v50.214
	C475.027,269.008,471.232,272.803,466.552,272.803z"/>
<path style="fill:#F74352;" d="M116.928,264.775v-50.662H36.973v50.662c0,4.433,3.594,8.027,8.027,8.027h79.955
	C120.522,272.803,116.928,269.209,116.928,264.775z"/>
<path style="fill:#DDDDDD;" d="M254.08,3.307c-24.211,137.36-78.035,210.807-78.035,210.807H256h79.955
	c0,0-53.824-73.446-78.035-210.807C257.143-1.102,254.857-1.102,254.08,3.307z"/>
<path style="fill:#CECCCA;" d="M257.172,0.963c-1.01-1.818-2.495-1.044-3.092,2.344c-24.211,137.36-78.035,210.807-78.035,210.807
	h46.476c0,0,23.673-73.446,34.322-210.807C256.923,2.285,257.038,1.511,257.172,0.963z"/>
<path style="fill:#F38D1A;" d="M293,345.577h-74c-4.143,0-7.5-3.357-7.5-7.5s3.357-7.5,7.5-7.5h74c4.143,0,7.5,3.357,7.5,7.5
	S297.143,345.577,293,345.577z"/>
<g>
</g>
<g>
</g>
<g>
</g>
<g>
</g>
<g>
</g>
<g>
</g>
<g>
</g>
<g>
</g>
<g>
</g>
<g>
</g>
<g>
</g>
<g>
</g>
<g>
</g>
<g>
</g>
<g>
</g>
</svg>
