<svg height="512pt" viewBox="0 0 512 512" width="512pt" xmlns="http://www.w3.org/2000/svg"><path d="m512 256c0 106.390625-64.910156 197.632812-157.289062 236.273438-8.640626 3.625-17.53125 6.78125-26.644532 9.433593-22.851562 6.699219-47.042968 10.292969-72.066406 10.292969-71.835938 0-136.757812-29.582031-183.253906-77.238281-17.972656-18.421875-33.1875-39.539063-44.984375-62.695313-17.75-34.835937-27.761719-74.292968-27.761719-116.066406 0-71.566406 29.371094-136.277344 76.714844-182.742188 31.265625-30.667968 70.355468-53.382812 114.011718-64.855468 20.832032-5.488282 42.714844-8.402344 65.273438-8.402344s44.441406 2.914062 65.273438 8.402344c42.621093 11.199218 80.898437 33.121094 111.773437 62.691406 48.660156 46.605469 78.953125 112.222656 78.953125 184.90625zm0 0" fill="#71cc8a"/><path d="m482.460938 312.496094c0 67.417968-54.847657 122.265625-122.265626 122.265625h-287.449218c-17.972656-18.421875-33.1875-39.539063-44.984375-62.695313h332.433593c32.851563 0 59.570313-26.726562 59.570313-59.570312 0-32.851563-26.71875-59.566406-59.570313-59.566406h-175.550781c-67.417969 0-122.265625-54.847657-122.265625-122.265626 0-20.742187 5.183594-40.28125 14.335938-57.40625 20.597656-38.558593 61.253906-64.855468 107.929687-64.855468h136.628907c42.621093 11.199218 80.898437 33.121094 111.773437 62.691406h-248.402344c-32.851562 0-59.570312 26.730469-59.570312 59.570312 0 32.839844 26.71875 59.570313 59.570312 59.570313h175.550781c67.417969 0 122.265626 54.847656 122.265626 122.261719zm0 0" fill="#445166"/><path d="m276.113281 106.339844h26.644531v64.261718h-26.644531zm0 0" fill="#445166"/><path d="m338.546875 92.234375c0 27.121094-21.988281 49.109375-49.109375 49.109375-27.125 0-49.109375-21.988281-49.109375-49.109375 0-27.125 21.984375-49.113281 49.109375-49.113281 27.121094 0 49.109375 21.988281 49.109375 49.113281zm0 0" fill="#3eaf85"/><path d="m372.246094 249.492188h26.644531v64.257812h-26.644531zm0 0" fill="#445166"/><path d="m434.675781 235.382812c0 27.125-21.984375 49.113282-49.109375 49.113282-27.121094 0-49.109375-21.988282-49.109375-49.113282 0-27.121093 21.988281-49.109374 49.109375-49.109374 27.125 0 49.109375 21.988281 49.109375 49.109374zm0 0" fill="#3eaf85"/><path d="m58.777344 239.042969h26.644531v64.257812h-26.644531zm0 0" fill="#445166"/><path d="m121.207031 224.933594c0 27.125-21.984375 49.113281-49.109375 49.113281-27.121094 0-49.109375-21.988281-49.109375-49.113281 0-27.121094 21.988281-49.109375 49.109375-49.109375 27.125 0 49.109375 21.988281 49.109375 49.109375zm0 0" fill="#3eaf85"/><path d="m354.710938 449.914062v42.359376c-8.640626 3.625-17.53125 6.78125-26.644532 9.433593v-51.792969zm0 0" fill="#445166"/><path d="m390.5 435.804688c0 27.125-21.988281 49.113281-49.109375 49.113281-27.125 0-49.113281-21.988281-49.113281-49.113281 0-27.121094 21.988281-49.109376 49.113281-49.109376 27.121094 0 49.109375 21.988282 49.109375 49.109376zm0 0" fill="#3eaf85"/><path d="m220.472656 335.957031v43.363281c0 9.382813-7.59375 16.976563-16.980468 16.976563h-97.695313c-9.382813 0-16.980469-7.59375-16.980469-16.976563v-43.363281c0-.085937 0-.179687.011719-.261719.132813-9.257812 7.667969-16.71875 16.96875-16.71875h97.695313c9.300781 0 16.835937 7.460938 16.972656 16.71875.007812.082032.007812.175782.007812.261719zm0 0" fill="#fce065"/><path d="m98.835938 372.066406h10.878906v29.457032h-10.878906c-8.128907 0-14.722657-6.59375-14.722657-14.722657 0-4.066406 1.652344-7.753906 4.316407-10.417969 2.664062-2.664062 6.34375-4.316406 10.40625-4.316406zm0 0" fill="#fcfcfc"/><path d="m225.175781 386.800781c0 4.0625-1.652343 7.742188-4.316406 10.40625-2.664063 2.664063-6.34375 4.316407-10.40625 4.316407h-10.878906v-29.457032h10.878906c8.128906 0 14.722656 6.59375 14.722656 14.734375zm0 0" fill="#fcfcfc"/><path d="m142.625 396.296875c0 12.121094-9.824219 21.945313-21.941406 21.945313-12.117188 0-21.941406-9.824219-21.941406-21.945313 0-12.117187 9.824218-21.941406 21.941406-21.941406 12.117187 0 21.941406 9.824219 21.941406 21.941406zm0 0" fill="#2e3651"/><path d="m127.996094 396.296875c0 4.042969-3.273438 7.316406-7.3125 7.316406-4.039063 0-7.3125-3.273437-7.3125-7.316406 0-4.039063 3.273437-7.3125 7.3125-7.3125 4.039062 0 7.3125 3.273437 7.3125 7.3125zm0 0" fill="#fcfcfc"/><path d="m210.550781 396.296875c0 12.121094-9.824219 21.945313-21.945312 21.945313-12.117188 0-21.941407-9.824219-21.941407-21.945313 0-12.117187 9.824219-21.941406 21.941407-21.941406 12.121093 0 21.945312 9.824219 21.945312 21.941406zm0 0" fill="#2e3651"/><path d="m195.921875 396.296875c0 4.042969-3.277344 7.316406-7.316406 7.316406-4.039063 0-7.3125-3.273437-7.3125-7.316406 0-4.039063 3.273437-7.3125 7.3125-7.3125 4.039062 0 7.316406 3.273437 7.316406 7.3125zm0 0" fill="#fcfcfc"/><path d="m220.472656 335.957031v21.679688h-131.65625v-21.679688c0-.085937 0-.179687.011719-.261719h131.636719c.007812.082032.007812.175782.007812.261719zm0 0" fill="#77c6cf"/><g fill="#fce065"><path d="m188.082031 325.246094h8.359375v39.707031h-8.359375zm0 0"/><path d="m140.015625 325.246094h8.359375v39.707031h-8.359375zm0 0"/><path d="m102.398438 325.246094h8.359374v39.707031h-8.359374zm0 0"/></g></svg>